<svg width="80" height="80" viewBox="0 0 80 80" fill="none" xmlns="http://www.w3.org/2000/svg">
<g clip-path="url(#clip0_4067_147)">
<path d="M68.6198 55.2286H45.0378C44.3275 55.2255 43.6471 54.9419 43.1449 54.4398C42.6426 53.9377 42.359 53.2576 42.3558 52.5475V36.4366C42.3558 35.3892 41.9396 34.3847 41.1987 33.6441C40.4579 32.9035 39.4531 32.4874 38.4054 32.4874C37.3577 32.4874 36.3528 32.9035 35.612 33.6441C34.8711 34.3847 34.4549 35.3892 34.4549 36.4366V70.8564C34.4159 71.3566 34.1895 71.8236 33.8211 72.1642C33.4527 72.5049 32.9694 72.6942 32.4676 72.6942C31.9657 72.6942 31.4824 72.5049 31.114 72.1642C30.7456 71.8236 30.5193 71.3566 30.4803 70.8564V61.3276C30.4803 61.1418 30.4064 60.9636 30.275 60.8323C30.1436 60.7009 29.9654 60.6271 29.7796 60.6271H27.6533C27.3693 60.6239 27.0875 60.6767 26.8239 60.7824C26.5603 60.8881 26.3202 61.0447 26.1171 61.2432C25.914 61.4417 25.7521 61.6782 25.6405 61.9393C25.5289 62.2004 25.4698 62.4808 25.4667 62.7647V73.2357C25.4724 74.6389 25.614 76.0383 25.8895 77.4143C30.3995 79.1134 35.1804 79.9809 40.0001 79.9746C40.737 79.9746 41.4618 79.9746 42.1987 79.9746V61.1826C42.2378 60.6825 42.4641 60.2155 42.8325 59.8748C43.2009 59.5342 43.6843 59.345 44.1861 59.345C44.6879 59.345 45.1713 59.5342 45.5397 59.8748C45.9081 60.2155 46.1344 60.6825 46.1734 61.1826V79.5037C47.5359 79.2905 48.8867 79.0084 50.2205 78.6583V65.3131C50.2595 64.8129 50.4859 64.3458 50.8543 64.0052C51.2227 63.6645 51.706 63.4753 52.2078 63.4753C52.7097 63.4753 53.193 63.6645 53.5614 64.0052C53.9298 64.3458 54.1561 64.8129 54.1952 65.3131V77.3902C55.5749 76.8619 56.9258 76.2612 58.2423 75.5906V69.2864C58.2813 68.7863 58.5076 68.3193 58.876 67.9786C59.2444 67.6379 59.7278 67.4487 60.2296 67.4487C60.7314 67.4487 61.2148 67.6379 61.5832 67.9786C61.9516 68.3193 62.1778 68.7863 62.2169 69.2864V73.2477C64.8094 71.515 67.1931 69.4887 69.3205 67.2091V55.9533C69.3237 55.8593 69.308 55.7656 69.2742 55.6778C69.2405 55.59 69.1894 55.5099 69.124 55.4422C69.0586 55.3746 68.9802 55.3209 68.8936 55.2842C68.807 55.2475 68.7138 55.2286 68.6198 55.2286Z" fill="#E56953"/>
<path d="M32.993 23.8644L36.1582 21.606C36.2774 21.5198 36.3666 21.3983 36.4129 21.2587C36.4592 21.1191 36.4604 20.9685 36.4163 20.8282C36.3722 20.6879 36.285 20.565 36.1671 20.477C36.0493 20.389 35.9067 20.3403 35.7596 20.3378H31.8212C31.3966 20.3652 30.9752 20.2491 30.6247 20.0082C30.2741 19.7672 30.0147 19.4154 29.8882 19.0094L28.6801 15.2292C28.6369 15.0883 28.5497 14.965 28.4312 14.8774C28.3127 14.7898 28.1691 14.7425 28.0217 14.7425C27.8743 14.7425 27.7308 14.7898 27.6123 14.8774C27.4937 14.965 27.4065 15.0883 27.3633 15.2292L26.1552 18.9973C26.16 19.0455 26.16 19.094 26.1552 19.1422C25.99 19.5005 25.7262 19.8043 25.3946 20.0182C25.063 20.2321 24.6773 20.3471 24.2827 20.3499H20.151C20.0039 20.3524 19.8613 20.4011 19.7434 20.4891C19.6256 20.5771 19.5384 20.6999 19.4943 20.8402C19.4502 20.9805 19.4514 21.1312 19.4977 21.2708C19.544 21.4104 19.6331 21.5318 19.7523 21.618L23.1229 24.0334L23.2437 24.13C23.5433 24.3952 23.7573 24.7435 23.8584 25.1306C23.9595 25.5177 23.9432 25.9261 23.8115 26.3039L22.6034 29.9995C22.5609 30.1381 22.5625 30.2865 22.6079 30.4242C22.6534 30.5618 22.7404 30.6821 22.8571 30.7682C22.9737 30.8543 23.1143 30.9021 23.2592 30.9051C23.4042 30.908 23.5465 30.8659 23.6666 30.7845L26.8559 28.502C27.1894 28.2073 27.619 28.0448 28.064 28.0448C28.509 28.0448 28.9387 28.2073 29.2721 28.502L32.5339 30.8208C32.848 30.543 33.1621 30.2532 33.5125 29.9875L32.3044 26.1228C32.1727 25.7478 32.1576 25.3418 32.2611 24.9581C32.3646 24.5744 32.5819 24.231 32.8843 23.973L32.993 23.8644Z" fill="#E56953"/>
<path d="M21.1658 62.6074C21.1656 61.8041 21.3258 61.0089 21.6369 60.2683C21.948 59.5277 22.4037 58.8566 22.9775 58.2942C23.5513 57.7319 24.2315 57.2897 24.9784 56.9934C25.7253 56.6971 26.5237 56.5528 27.327 56.5688H29.4533C29.6391 56.5688 29.8174 56.495 29.9488 56.3637C30.0802 56.2323 30.154 56.0542 30.154 55.8684V36.2793C30.1513 35.7067 30.2121 35.1356 30.3353 34.5764C30.3668 34.4429 30.3584 34.303 30.3111 34.1742C30.2639 34.0454 30.1799 33.9333 30.0694 33.8518L28.3781 32.6441C28.2593 32.5558 28.1153 32.5082 27.9674 32.5082C27.8194 32.5082 27.6753 32.5558 27.5566 32.6441L19.0999 38.6826C18.7667 38.9778 18.3371 39.1411 17.8918 39.1416C17.6536 39.1434 17.4175 39.0973 17.1975 39.006C16.9775 38.9147 16.7781 38.7801 16.6113 38.6102C16.3078 38.3503 16.0901 38.0048 15.9866 37.619C15.8831 37.2332 15.8987 36.8251 16.0314 36.4484L19.1845 26.7021C19.2286 26.5618 19.2267 26.411 19.1788 26.2719C19.131 26.1328 19.0398 26.0127 18.9188 25.9292L10.4621 19.8906L10.3412 19.782C10.0364 19.5231 9.8177 19.1777 9.71412 18.7915C9.61053 18.4053 9.627 17.9967 9.76138 17.6201L9.82177 17.4752C9.98902 17.116 10.255 16.8117 10.5887 16.5979C10.9224 16.384 11.31 16.2694 11.7064 16.2675H22.1564C22.3044 16.269 22.4489 16.2229 22.5686 16.1359C22.6883 16.0489 22.7767 15.9257 22.8209 15.7844L25.974 6.03821C25.9692 5.99002 25.9692 5.94148 25.974 5.89329C26.1404 5.53589 26.4045 5.23283 26.7358 5.01913C27.0672 4.80542 27.4522 4.68979 27.8465 4.68558C28.2731 4.65541 28.6973 4.77024 29.0504 5.01139C29.4035 5.25254 29.6647 5.60583 29.7916 6.01403L32.9326 15.7724C32.9784 15.9126 33.0673 16.0347 33.1866 16.1215C33.3059 16.2082 33.4495 16.2551 33.5971 16.2555H44.1921C44.6193 16.2304 45.0428 16.3486 45.3951 16.5915C45.7475 16.8343 46.0086 17.1879 46.1371 17.596C46.2715 17.9726 46.288 18.3811 46.1844 18.7673C46.0808 19.1535 45.862 19.499 45.5572 19.7578L45.4364 19.8665L36.9798 25.9051C36.8583 25.991 36.7679 26.1139 36.7222 26.2554C36.6765 26.3969 36.6778 26.5494 36.7261 26.69L37.318 28.4775C37.6036 28.4595 37.8901 28.4595 38.1758 28.4775C40.3172 28.4614 42.3775 29.2956 43.9042 30.7969C45.4309 32.2982 46.2992 34.3439 46.3183 36.4846V50.6269C46.3183 50.8127 46.3921 50.9909 46.5235 51.1222C46.6549 51.2536 46.8332 51.3274 47.019 51.3274H70.601C71.3113 51.3306 71.9917 51.6141 72.4939 52.1162C72.9962 52.6183 73.2798 53.2984 73.283 54.0085V62.1122C77.7534 55.3835 80.0805 47.4591 79.958 39.3824C79.8354 31.3058 77.2689 23.4555 72.5964 16.8654C67.9238 10.2754 61.3644 5.25445 53.7818 2.4638C46.1991 -0.326852 37.9488 -0.756376 30.1172 1.2318C22.2856 3.21997 15.24 7.53258 9.90797 13.6018C4.57597 19.671 1.20764 27.2123 0.246533 35.2326C-0.714579 43.2528 0.776594 51.3761 4.52368 58.5326C8.27076 65.6891 14.0981 71.5434 21.2383 75.3246C21.2383 74.6362 21.1295 73.9478 21.1295 73.2353L21.1658 62.6074Z" fill="#E56953"/>
<path d="M44.1921 59.2021C43.6724 59.2201 43.1788 59.4345 42.8111 59.8022C42.4434 60.1698 42.2289 60.6631 42.2108 61.1826V79.9143L43.2377 79.8418C43.878 79.8418 44.5183 79.7211 45.1586 79.6365L46.1855 79.5037V61.1826C46.1673 60.6611 45.9511 60.166 45.5808 59.7981C45.2105 59.4302 44.714 59.2171 44.1921 59.2021Z" fill="white"/>
<path d="M52.2018 63.3203C51.682 63.3383 51.1885 63.5528 50.8207 63.9204C50.453 64.288 50.2385 64.7814 50.2205 65.301V78.6583L51.2474 78.3684C51.8998 78.1752 52.54 77.9699 53.1682 77.7525L54.1951 77.3781V65.301C54.1769 64.7794 53.9607 64.2843 53.5904 63.9164C53.2202 63.5485 52.7236 63.3353 52.2018 63.3203Z" fill="white"/>
<path d="M60.2356 67.2937C59.7147 67.3115 59.2197 67.5256 58.85 67.893C58.4803 68.2603 58.2632 68.7537 58.2422 69.2743V75.5786L59.269 75.0351C59.9214 74.6728 60.5617 74.2864 61.1899 73.8999L62.2168 73.2357V69.2743C62.1987 68.7548 61.9842 68.2614 61.6165 67.8938C61.2488 67.5262 60.7553 67.3117 60.2356 67.2937Z" fill="white"/>
<path d="M70.6131 51.2432H47.0311C46.939 51.2432 46.848 51.2251 46.7629 51.1899C46.6779 51.1547 46.6007 51.1031 46.5356 51.0381C46.4706 50.973 46.4189 50.8958 46.3837 50.8108C46.3485 50.7258 46.3304 50.6347 46.3304 50.5427V36.4367C46.3113 34.2959 45.443 32.2503 43.9163 30.749C42.3896 29.2477 40.3293 28.4134 38.1879 28.4295C37.9022 28.4115 37.6157 28.4115 37.3301 28.4295L36.7381 26.6421C36.6903 26.5096 36.6844 26.3655 36.7211 26.2294C36.7578 26.0934 36.8355 25.9718 36.9435 25.8813L45.4002 19.8427L45.5209 19.734C45.8258 19.4752 46.0445 19.1297 46.1481 18.7435C46.2517 18.3573 46.2353 17.9488 46.1009 17.5722C45.9761 17.1681 45.7214 16.8164 45.3763 16.5719C45.0311 16.3273 44.6148 16.2034 44.1921 16.2196H33.73C33.5825 16.2192 33.4388 16.1723 33.3195 16.0856C33.2002 15.9988 33.1113 15.8767 33.0655 15.7365L29.9245 5.97821C29.7975 5.57001 29.5363 5.21665 29.1833 4.9755C28.8302 4.73435 28.406 4.61952 27.9795 4.64969C27.5852 4.6539 27.2 4.76953 26.8687 4.98324C26.5374 5.19694 26.2733 5.5 26.1069 5.8574C26.1022 5.90559 26.1022 5.95413 26.1069 6.00232L22.9537 15.7486C22.9096 15.8898 22.8212 16.013 22.7015 16.1C22.5818 16.187 22.4373 16.2332 22.2893 16.2317H11.8393C11.4429 16.2336 11.0553 16.3481 10.7216 16.562C10.3879 16.7758 10.1219 17.0801 9.95465 17.4394L9.89426 17.5843C9.75988 17.9609 9.7434 18.3694 9.84699 18.7556C9.95058 19.1418 10.1694 19.4872 10.4742 19.7461L10.595 19.8548L19.0516 25.8934C19.1727 25.9769 19.2639 26.097 19.3117 26.2361C19.3595 26.3752 19.3615 26.526 19.3174 26.6663L16.1643 36.4125C16.0316 36.7893 16.016 37.1973 16.1195 37.5831C16.223 37.9689 16.4408 38.3145 16.7442 38.5743C16.9111 38.7442 17.1104 38.8788 17.3304 38.9701C17.5504 39.0614 17.7866 39.1075 18.0248 39.1057C18.47 39.1053 18.8997 38.942 19.2329 38.6468L27.6895 32.6082C27.8083 32.52 27.9523 32.4724 28.1002 32.4724C28.2482 32.4724 28.3923 32.52 28.511 32.6082L30.2023 33.816C30.3127 33.8974 30.3968 34.0096 30.4441 34.1384C30.4913 34.2672 30.4997 34.407 30.4681 34.5405C30.345 35.0997 30.2842 35.6709 30.2869 36.2435V55.7721C30.2869 55.8641 30.2688 55.9553 30.2336 56.0402C30.1984 56.1252 30.1467 56.2024 30.0817 56.2674C30.0166 56.3325 29.9394 56.3841 29.8544 56.4193C29.7693 56.4545 29.6782 56.4726 29.5862 56.4726H27.2787C26.4754 56.4566 25.6769 56.6009 24.93 56.8971C24.1832 57.1934 23.503 57.6356 22.9292 58.198C22.3554 58.7603 21.8996 59.4314 21.5885 60.1721C21.2774 60.9127 21.1173 61.7079 21.1175 62.5112V73.139C21.1175 73.8516 21.1175 74.54 21.2262 75.2284L22.2893 75.7839C23.0867 76.1704 23.9082 76.5327 24.7055 76.8829L25.8169 77.3178C25.5414 75.9418 25.3998 74.5423 25.3941 73.139V62.6682C25.3973 62.3843 25.4563 62.1038 25.5679 61.8427C25.6795 61.5816 25.8415 61.3451 26.0445 61.1465C26.2476 60.948 26.4878 60.7915 26.7514 60.6858C27.015 60.5801 27.2968 60.5273 27.5808 60.5305H29.707C29.8929 60.5305 30.0711 60.6043 30.2025 60.7357C30.3339 60.867 30.4077 61.0452 30.4077 61.231V70.7598C30.4468 71.26 30.673 71.727 31.0414 72.0677C31.4098 72.4084 31.8932 72.5975 32.395 72.5975C32.8968 72.5975 33.3802 72.4084 33.7486 72.0677C34.117 71.727 34.3433 71.26 34.3823 70.7598V36.34C34.3823 35.2926 34.7986 34.2882 35.5394 33.5476C36.2803 32.8069 37.2851 32.3909 38.3328 32.3909C39.3806 32.3909 40.3853 32.8069 41.1262 33.5476C41.867 34.2882 42.2833 35.2926 42.2833 36.34V52.4509C42.2864 53.161 42.57 53.8412 43.0723 54.3433C43.5746 54.8454 44.2549 55.1288 44.9653 55.132H68.5472C68.733 55.132 68.9113 55.2059 69.0427 55.3372C69.1741 55.4686 69.2479 55.6467 69.2479 55.8325V67.0884L70.2748 65.8807C70.9393 65.0957 71.5916 64.2986 72.1957 63.4653C72.546 62.9822 72.8964 62.487 73.2226 61.9919V53.8157C73.1924 53.1369 72.9067 52.4946 72.4228 52.0175C71.9388 51.5404 71.2924 51.2639 70.6131 51.2432ZM29.26 28.4658C28.9266 28.1712 28.4969 28.0086 28.0519 28.0086C27.6069 28.0086 27.1773 28.1712 26.8439 28.4658L23.6545 30.7846C23.5344 30.8659 23.3921 30.908 23.2471 30.9051C23.1022 30.9022 22.9616 30.8544 22.845 30.7682C22.7283 30.6821 22.6413 30.5619 22.5959 30.4242C22.5505 30.2865 22.5489 30.1382 22.5913 29.9995L23.7994 26.3039C23.9311 25.9262 23.9475 25.5178 23.8464 25.1307C23.7453 24.7436 23.5313 24.3953 23.2317 24.1301L23.1108 24.0334L19.7403 21.618C19.621 21.5319 19.532 21.4104 19.4856 21.2708C19.4393 21.1312 19.4381 20.9806 19.4822 20.8403C19.5264 20.7 19.6135 20.5771 19.7313 20.4891C19.8492 20.4011 19.9918 20.3524 20.1389 20.3499H24.1135C24.5082 20.3472 24.8939 20.2321 25.2255 20.0182C25.5571 19.8044 25.8209 19.5005 25.9861 19.1422C25.9908 19.094 25.9908 19.0455 25.9861 18.9973L27.1942 15.2293C27.2373 15.0884 27.3247 14.965 27.4432 14.8774C27.5617 14.7898 27.7052 14.7425 27.8526 14.7425C28 14.7425 28.1435 14.7898 28.262 14.8774C28.3805 14.965 28.4678 15.0884 28.511 15.2293L29.7191 19.0094C29.8456 19.4155 30.105 19.7673 30.4555 20.0082C30.8061 20.2491 31.2275 20.3652 31.652 20.3378H35.7354C35.8825 20.3403 36.0251 20.389 36.1429 20.477C36.2608 20.565 36.348 20.688 36.3921 20.8283C36.4362 20.9686 36.435 21.1191 36.3887 21.2587C36.3424 21.3983 36.2533 21.5199 36.1341 21.606L32.9689 23.8644L32.848 23.9731C32.5456 24.231 32.3284 24.5744 32.2249 24.9581C32.1214 25.3418 32.1365 25.7479 32.2682 26.1228L33.4763 29.9875C33.1259 30.2532 32.8118 30.5431 32.4977 30.8209L29.26 28.4658Z" fill="white"/>
</g>
<defs>
<clipPath id="clip0_4067_147">
<rect width="80" height="79.9747" fill="white"/>
</clipPath>
</defs>
</svg>
