<svg width="113" height="113" viewBox="0 0 113 113" fill="none" xmlns="http://www.w3.org/2000/svg">
<path d="M44.8029 70.6563C44.6057 70.6583 44.4104 70.6172 44.2307 70.5359C44.0511 70.4545 43.8914 70.335 43.7627 70.1855C40.8545 66.8905 38.4414 63.1901 36.5993 59.2005C36.4916 58.8764 36.5105 58.5236 36.6521 58.2128C36.7937 57.902 37.0476 57.6562 37.3629 57.5247C37.6782 57.3932 38.0316 57.3856 38.3523 57.5036C38.6729 57.6216 38.937 57.8563 39.0918 58.1608C40.8192 61.8985 43.0874 65.3619 45.8234 68.4397C45.9469 68.5765 46.0412 68.737 46.1004 68.9115C46.1596 69.086 46.1826 69.2707 46.1679 69.4544C46.1532 69.638 46.1011 69.8167 46.0149 69.9795C45.9287 70.1424 45.8101 70.2859 45.6664 70.4013C45.4168 70.5838 45.1116 70.6739 44.8029 70.6563Z" fill="#A85D50"/>
<path d="M49.729 75.8938C49.3782 75.8982 49.0398 75.7643 48.787 75.5211L47.7861 74.5599L46.7263 73.481C46.5974 73.3522 46.4952 73.1993 46.4255 73.031C46.3557 72.8627 46.3198 72.6824 46.3198 72.5002C46.3198 72.3181 46.3557 72.1377 46.4255 71.9694C46.4952 71.8011 46.5974 71.6482 46.7263 71.5194C46.8551 71.3906 47.0081 71.2885 47.1765 71.2188C47.3449 71.1491 47.5253 71.1132 47.7076 71.1132C47.8898 71.1132 48.0703 71.1491 48.2386 71.2188C48.407 71.2885 48.56 71.3906 48.6889 71.5194L49.7487 72.5787L50.6907 73.5007C50.8263 73.6256 50.9345 73.7772 51.0085 73.946C51.0825 74.1149 51.1208 74.2972 51.1208 74.4815C51.1208 74.6658 51.0825 74.8481 51.0085 75.0169C50.9345 75.1857 50.8263 75.3374 50.6907 75.4623C50.5689 75.5966 50.4205 75.7043 50.255 75.7786C50.0895 75.8529 49.9104 75.8921 49.729 75.8938Z" fill="#A85D50"/>
<path d="M61.9757 84.8192C61.7851 84.811 61.5982 84.7643 61.4262 84.682C58.5439 83.2742 55.8312 81.5434 53.3403 79.5229C53.1813 79.4199 53.0456 79.2848 52.9421 79.1261C52.8385 78.9674 52.7695 78.7888 52.7394 78.6018C52.7093 78.4148 52.7187 78.2235 52.7672 78.0404C52.8157 77.8573 52.9021 77.6865 53.0208 77.5388C53.1396 77.3912 53.288 77.27 53.4565 77.1833C53.6249 77.0966 53.8097 77.0462 53.9989 77.0354C54.1881 77.0246 54.3775 77.0536 54.5548 77.1205C54.7321 77.1874 54.8934 77.2908 55.0282 77.4239C57.3493 79.3029 59.87 80.9211 62.5448 82.2495C62.7071 82.3215 62.8534 82.4251 62.9752 82.5543C63.0969 82.6835 63.1916 82.8357 63.2537 83.0019C63.3159 83.1682 63.3442 83.3451 63.3371 83.5225C63.3299 83.6998 63.2874 83.8739 63.2121 84.0346C63.1011 84.2686 62.926 84.4665 62.7072 84.6053C62.4885 84.7442 62.2349 84.8183 61.9757 84.8192Z" fill="#A85D50"/>
<path d="M82.6807 31.3061C80.1686 28.1479 77.1659 23.6166 77.1659 19.9876C77.1379 19.3241 77.2484 18.6621 77.4903 18.0437C77.7322 17.4252 78.1002 16.8639 78.5709 16.3953C79.0416 15.9266 79.6046 15.561 80.2243 15.3217C80.844 15.0823 81.5068 14.9745 82.1704 15.0051C87.2732 15.0051 94.3581 21.2626 97.1646 23.9501L95.359 25.9117C90.06 20.8507 85.0162 17.6925 82.1704 17.6925C81.8503 17.6585 81.5265 17.6965 81.2229 17.8038C80.9194 17.9111 80.6436 18.0848 80.416 18.3124C80.1883 18.54 80.0144 18.8156 79.9071 19.119C79.7998 19.4224 79.7617 19.746 79.7957 20.066C79.7957 22.2827 81.5817 25.8136 84.7218 29.7564L82.6807 31.3061Z" fill="#A85D50"/>
<path d="M85.0164 32.3655L75.6941 28.8934L76.6165 26.4414L82.4061 28.5992V22.832H85.0164V32.3655Z" fill="#A85D50"/>
<path d="M103.523 46.3126C98.4206 46.3126 91.3357 40.0746 88.5488 37.3872L90.3544 35.4256C95.6337 40.4865 100.678 43.6252 103.523 43.6252C103.844 43.6591 104.167 43.6211 104.471 43.5138C104.774 43.4066 105.05 43.2328 105.278 43.0052C105.505 42.7776 105.679 42.5021 105.787 42.1986C105.894 41.8952 105.932 41.5716 105.898 41.2516C105.898 39.0546 104.092 35.5236 100.952 31.5808L102.915 29.9526C105.427 33.1108 108.41 37.6226 108.41 41.2516C108.451 41.9119 108.354 42.5735 108.126 43.1944C107.897 43.8153 107.542 44.3817 107.082 44.8578C106.622 45.3338 106.068 45.709 105.456 45.9595C104.843 46.2099 104.185 46.3302 103.523 46.3126Z" fill="#A85D50"/>
<path d="M103.288 38.4856H100.678V28.9521L110 32.4242L109.078 34.8763L103.288 32.7185V38.4856Z" fill="#A85D50"/>
<path d="M4.02055 73.7753L3 71.284C3 71.284 17.4839 65.3992 20.4081 64.2418C22.0149 63.5827 23.4855 62.6316 24.7454 61.4367C25.9622 60.2794 53.5757 34.3859 54.9299 33.209C55.0471 33.0427 55.2002 32.9049 55.3779 32.8059C55.5556 32.7069 55.7533 32.6492 55.9564 32.6371C56.1595 32.6249 56.3627 32.6587 56.551 32.7359C56.7392 32.813 56.9077 32.9316 57.0438 33.0827C57.1799 33.2339 57.2801 33.4137 57.3371 33.6089C57.3941 33.8042 57.4064 34.0097 57.373 34.2103C57.3396 34.4109 57.2615 34.6014 57.1443 34.7676C57.0271 34.9339 56.874 35.0716 56.6963 35.1706C55.6561 36.0729 36.5798 53.9433 26.6295 63.2806C25.1179 64.7339 23.3382 65.8798 21.3894 66.6546C18.4848 67.8904 4.02055 73.7753 4.02055 73.7753Z" fill="#A85D50"/>
<path d="M57.9523 95.2551C57.6825 95.253 57.4195 95.1703 57.197 95.0177C56.9745 94.8652 56.8027 94.6497 56.7036 94.3989C56.6045 94.148 56.5826 93.8733 56.6407 93.61C56.6988 93.3466 56.8344 93.1066 57.0299 92.9208C58.2663 91.783 87.3911 64.8303 88.7256 63.673C88.8441 63.5109 88.9971 63.3772 89.1737 63.2815C89.3502 63.1859 89.5459 63.1306 89.7464 63.1199C89.947 63.1091 90.1474 63.143 90.3332 63.2192C90.519 63.2954 90.6855 63.412 90.8206 63.5605C90.9558 63.7089 91.0562 63.8856 91.1147 64.0776C91.1731 64.2697 91.1881 64.4723 91.1585 64.6708C91.1289 64.8694 91.0555 65.0588 90.9436 65.2255C90.8317 65.3922 90.6842 65.532 90.5116 65.6346C89.1966 66.792 59.1102 94.5685 58.8551 94.8432C58.6172 95.0897 58.2946 95.2369 57.9523 95.2551Z" fill="#A85D50"/>
<path d="M87.9011 66.3995C82.7984 66.3995 74.5556 60.8089 67.7062 53.9628C59.8558 46.1164 52.2999 35.5824 56.4802 31.4042C60.1502 27.7359 70.4538 32.2673 80.0312 41.7419C88.6469 50.3534 95.2805 61.1816 91.2768 65.2814C90.8211 65.6895 90.2862 65.9993 89.7054 66.1917C89.1247 66.3841 88.5105 66.4548 87.9011 66.3995ZM60.0325 32.8165C59.7375 32.7871 59.4397 32.8171 59.1565 32.9047C58.8734 32.9923 58.6106 33.1358 58.3839 33.3266C56.8531 34.837 59.3848 41.84 69.6099 52.0601C73.371 55.9306 77.6748 59.2345 82.3863 61.8682C86.3115 63.9671 88.6077 63.9475 89.2749 63.2806C90.9824 61.5543 87.4498 53.0605 78.0294 43.6643C70.65 36.269 63.3689 32.8165 60.0325 32.8165Z" fill="#A85D50"/>
<path d="M71.2194 81.5237C69.0342 81.4031 66.9028 80.8002 64.9784 79.7583C60.0728 77.169 55.6136 73.8114 51.7702 69.8128C47.706 65.885 44.247 61.3766 41.5059 56.4346C39.0919 51.7659 38.7976 48.3331 40.662 46.4695C40.787 46.334 40.9387 46.2258 41.1076 46.1519C41.2765 46.0779 41.4589 46.0397 41.6433 46.0397C41.8277 46.0397 42.0101 46.0779 42.179 46.1519C42.3479 46.2258 42.4996 46.334 42.6246 46.4695C42.7551 46.5974 42.8589 46.75 42.9297 46.9184C43.0005 47.0868 43.0369 47.2677 43.0369 47.4503C43.0369 47.633 43.0005 47.8139 42.9297 47.9823C42.8589 48.1507 42.7551 48.3033 42.6246 48.4311C41.9573 49.0981 41.8984 51.2951 43.9591 55.2576C46.5833 59.9564 49.8903 64.2401 53.7721 67.9689C57.4023 71.7543 61.6165 74.9333 66.2541 77.3847C70.0615 79.2483 72.1418 79.1305 72.9072 78.4047C73.0361 78.2759 73.1891 78.1738 73.3575 78.1041C73.5258 78.0343 73.7063 77.9985 73.8885 77.9985C74.0708 77.9985 74.2512 78.0343 74.4196 78.1041C74.588 78.1738 74.741 78.2759 74.8698 78.4047C74.9987 78.5336 75.1009 78.6865 75.1706 78.8547C75.2404 79.023 75.2763 79.2034 75.2763 79.3856C75.2763 79.5677 75.2404 79.7481 75.1706 79.9164C75.1009 80.0847 74.9987 80.2376 74.8698 80.3664C74.3757 80.803 73.7957 81.1315 73.1671 81.3308C72.5384 81.5302 71.875 81.5959 71.2194 81.5237Z" fill="#A85D50"/>
</svg>
