<svg width="120" height="113" viewBox="0 0 120 113" fill="none" xmlns="http://www.w3.org/2000/svg">
<path d="M46.3431 74.65C46.1246 74.6522 45.9082 74.6065 45.7091 74.5161C45.51 74.4257 45.3331 74.2927 45.1905 74.1265C41.9355 70.4614 39.232 66.3386 37.1659 61.889C37.0902 61.7057 37.0512 61.5092 37.0513 61.3108C37.0513 61.1123 37.0903 60.9158 37.166 60.7325C37.319 60.3623 37.6123 60.0682 37.9814 59.9148C38.3505 59.7615 38.7652 59.7616 39.1343 59.915C39.5034 60.0685 39.7966 60.3626 39.9495 60.7329C41.8678 64.8936 44.3807 68.7516 47.4087 72.1851C47.5486 72.3357 47.6556 72.5139 47.7231 72.7083C47.7905 72.9027 47.8169 73.109 47.8006 73.3142C47.7842 73.5193 47.7254 73.7189 47.628 73.9C47.5306 74.0812 47.3967 74.24 47.2348 74.3664C46.9775 74.5582 46.6636 74.658 46.3431 74.65Z" fill="#1D1D1B"/>
<path d="M51.8233 80.4961C51.6305 80.5009 51.4387 80.4667 51.2593 80.3955C51.08 80.3243 50.9168 80.2175 50.7795 80.0816L49.6704 78.9909L48.4743 77.7912C48.3269 77.6506 48.2096 77.4814 48.1294 77.2939C48.0492 77.1064 48.0078 76.9045 48.0078 76.7005C48.0078 76.4965 48.0492 76.2946 48.1294 76.1071C48.2096 75.9196 48.3269 75.7504 48.4743 75.6098C48.6128 75.4591 48.7809 75.3389 48.9681 75.2566C49.1552 75.1743 49.3573 75.1318 49.5616 75.1318C49.766 75.1318 49.9681 75.1743 50.1552 75.2566C50.3424 75.3389 50.5105 75.4591 50.649 75.6098L51.8451 76.8095L52.889 77.8348C53.0363 77.9754 53.1537 78.1446 53.2339 78.3321C53.3141 78.5196 53.3554 78.7215 53.3554 78.9255C53.3554 79.1295 53.3141 79.3314 53.2339 79.5189C53.1537 79.7064 53.0363 79.8756 52.889 80.0162C52.754 80.1656 52.5896 80.2853 52.4062 80.3679C52.2228 80.4505 52.0244 80.4941 51.8233 80.4961Z" fill="#1D1D1B"/>
<path d="M65.437 90.4213C65.22 90.422 65.0052 90.3774 64.8063 90.2905C61.6077 88.7249 58.601 86.7923 55.8465 84.5316C55.6826 84.4081 55.5457 84.2522 55.4442 84.0735C55.3427 83.8949 55.2787 83.6972 55.2563 83.4928C55.2339 83.2884 55.2535 83.0816 55.3138 82.8851C55.3742 82.6886 55.4741 82.5065 55.6073 82.3502C55.7323 82.1884 55.8886 82.0535 56.0667 81.9535C56.2447 81.8534 56.4411 81.7904 56.6439 81.768C56.8468 81.7456 57.0521 81.7644 57.2476 81.8232C57.4431 81.882 57.6249 81.9796 57.782 82.1103C60.347 84.2263 63.1496 86.0346 66.1329 87.4983C66.3128 87.578 66.4748 87.6933 66.6091 87.8375C66.7434 87.9816 66.8472 88.1516 66.9143 88.3371C66.9813 88.5226 67.0103 88.7198 66.9993 88.9168C66.9883 89.1138 66.9377 89.3065 66.8505 89.4834C66.7447 89.77 66.5506 90.0153 66.2965 90.1839C66.0424 90.3526 65.7413 90.4357 65.437 90.4213Z" fill="#1D1D1B"/>
<path d="M1.13084 77.0277L0 74.2574C0 74.2574 16.0928 67.7132 19.3331 66.3826C21.1075 65.6504 22.7301 64.5925 24.1175 63.2632L38.949 49.3025C39.2374 49.0132 39.6285 48.8507 40.0364 48.8507C40.4442 48.8507 40.8353 49.0132 41.1237 49.3025C41.4121 49.5917 41.5741 49.9841 41.5741 50.3931C41.5741 50.8022 41.4121 51.1946 41.1237 51.4838L26.2922 65.401C24.615 67.0197 22.644 68.3007 20.4857 69.1747C17.2019 70.4617 1.13084 77.0277 1.13084 77.0277Z" fill="#1D1D1B"/>
<path d="M51.6928 40.9478C51.4877 40.9518 51.2842 40.9109 51.0964 40.828C50.9087 40.7451 50.7411 40.6223 50.6055 40.4679C50.4552 40.329 50.3353 40.1604 50.2533 39.9726C50.1713 39.7849 50.1289 39.5822 50.1289 39.3772C50.1289 39.1723 50.1713 38.9695 50.2533 38.7818C50.3353 38.594 50.4552 38.4255 50.6055 38.2866L55.4116 33.7929C55.5465 33.6246 55.7159 33.4873 55.9084 33.3905C56.1008 33.2937 56.3119 33.2396 56.527 33.2318C56.7422 33.224 56.9565 33.2628 57.1554 33.3454C57.3544 33.4281 57.5332 33.5528 57.6799 33.7109C57.8265 33.8691 57.9375 34.0571 58.0053 34.2621C58.0731 34.467 58.0961 34.6843 58.0728 34.899C58.0494 35.1137 57.9803 35.3208 57.8701 35.5064C57.7599 35.6919 57.6112 35.8515 57.434 35.9743L52.6497 40.4461C52.4066 40.7301 52.064 40.9097 51.6928 40.9478Z" fill="#1D1D1B"/>
<path d="M86.9667 76.6132C86.7618 76.6157 86.5588 76.5742 86.3712 76.4914C86.1837 76.4086 86.016 76.2865 85.8794 76.1333C85.7291 75.9944 85.6092 75.8258 85.5272 75.6381C85.4452 75.4504 85.4028 75.2476 85.4028 75.0426C85.4028 74.8377 85.4452 74.6349 85.5272 74.4472C85.6092 74.2595 85.7291 74.0908 85.8794 73.9519L91.2726 68.9566C91.4076 68.7883 91.577 68.651 91.7695 68.5542C91.962 68.4574 92.1729 68.4033 92.3881 68.3955C92.6033 68.3877 92.8176 68.4265 93.0165 68.5091C93.2155 68.5918 93.3943 68.7165 93.5409 68.8746C93.6876 69.0328 93.7986 69.2208 93.8664 69.4257C93.9342 69.6307 93.9572 69.848 93.9339 70.0627C93.9105 70.2774 93.8414 70.4845 93.7312 70.6701C93.621 70.8556 93.4723 71.0152 93.2951 71.138L87.9236 76.0897C87.6857 76.3836 87.3419 76.5717 86.9667 76.6132Z" fill="#1D1D1B"/>
<path d="M61.0875 100.979C60.7867 100.981 60.4922 100.892 60.2423 100.724C59.9924 100.556 59.7986 100.317 59.6861 100.037C59.5736 99.7573 59.5475 99.45 59.6112 99.1551C59.675 98.8602 59.8257 98.5913 60.0437 98.3834C60.0437 98.3834 66.3068 92.4064 74.114 85.1424C74.2513 84.9827 74.4206 84.8537 74.6108 84.7638C74.8011 84.6739 75.008 84.6251 75.2182 84.6206C75.4285 84.6161 75.6373 84.6559 75.8312 84.7375C76.0251 84.8192 76.1997 84.9408 76.3437 85.0945C76.4878 85.2482 76.598 85.4305 76.6672 85.6297C76.7365 85.8288 76.7632 86.0404 76.7457 86.2506C76.7282 86.4608 76.6669 86.6649 76.5657 86.8498C76.4645 87.0347 76.3257 87.1962 76.1582 87.3238C68.351 94.5441 62.1314 100.521 62.1314 100.521C61.8557 100.804 61.4815 100.968 61.0875 100.979Z" fill="#1D1D1B"/>
<path d="M93.708 71.6615C87.6841 71.6615 77.7892 64.8774 69.5688 56.6319C60.2393 47.2738 51.1055 34.6218 55.9769 29.7356C58.1516 27.5542 62.327 27.7942 67.7855 30.3682C73.7501 33.4379 79.172 37.4689 83.8348 42.3003C94.1647 52.64 102.146 65.5755 97.4485 70.2654C96.9532 70.7421 96.3658 71.1119 95.7224 71.3521C95.0791 71.5922 94.3935 71.6975 93.708 71.6615ZM60.2175 31.328C59.5407 31.2619 58.8642 31.4569 58.3255 31.8733C56.564 33.6402 59.6521 41.973 71.8957 54.2542C83.1824 65.5973 93.2948 69.9164 95.2956 67.9096C97.2963 65.9027 92.9686 55.7811 81.6819 44.438C77.2618 39.863 72.1181 36.0525 66.4589 33.1603C64.531 32.1139 62.4037 31.4894 60.2175 31.328Z" fill="#1D1D1B"/>
<path d="M80.3988 88.3709C73.8747 88.3709 63.3057 81.1942 54.5198 72.4032C44.5597 62.3907 34.7952 48.8008 40.145 43.4346C41.1203 42.5844 42.3774 42.1308 43.6692 42.1631C44.961 42.1954 46.194 42.7112 47.1258 43.6092C47.3079 43.7447 47.4614 43.915 47.5775 44.1103C47.6937 44.3056 47.7701 44.522 47.8024 44.7471C47.8348 44.9722 47.8224 45.2015 47.766 45.4217C47.7096 45.642 47.6103 45.8489 47.4738 46.0304C47.1974 46.3944 46.7895 46.635 46.338 46.7003C45.8865 46.7656 45.4275 46.6503 45.0599 46.3795C44.2117 45.7469 43.1244 45.3542 42.5807 45.8777C40.6452 47.8192 43.8855 56.7846 56.9555 69.8728C69.0469 82.0013 79.9422 86.5385 82.1386 84.3135C82.2097 84.0482 82.2232 83.7708 82.1781 83.4998C82.1331 83.2289 82.0306 82.9707 81.8776 82.7429C81.6476 82.3494 81.5825 81.8804 81.6966 81.4387C81.8108 80.9971 82.0948 80.6189 82.4866 80.3871C82.8822 80.1552 83.3531 80.0893 83.797 80.2037C84.2408 80.318 84.6217 80.6034 84.857 80.9978C85.4315 81.8614 85.7141 82.8872 85.6632 83.9241C85.6123 84.9609 85.2306 85.954 84.5743 86.7567C84.0244 87.2966 83.3705 87.7181 82.6525 87.9957C81.9346 88.2733 81.1677 88.401 80.3988 88.3709Z" fill="#1D1D1B"/>
<path d="M78.0068 28.9721H77.7459C77.3563 28.8977 77.0109 28.6737 76.7835 28.3477C76.556 28.0218 76.4644 27.6197 76.528 27.227L78.942 13.2444C78.9735 13.0504 79.0432 12.8647 79.1469 12.6979C79.2507 12.5312 79.3864 12.3869 79.5463 12.2732C79.7061 12.1596 79.8869 12.0789 80.0781 12.0359C80.2693 11.9929 80.4671 11.9885 80.66 12.0228C81.0519 12.0871 81.4024 12.3046 81.6348 12.6276C81.8671 12.9506 81.9623 13.3528 81.8996 13.7462L79.4856 27.7505C79.4159 28.0932 79.231 28.4016 78.9618 28.6239C78.6927 28.8463 78.3555 28.9692 78.0068 28.9721Z" fill="#1D1D1B"/>
<path d="M102.842 50.655C102.457 50.6501 102.087 50.4988 101.809 50.2316C101.53 49.9644 101.363 49.6012 101.341 49.2152C101.333 49.0175 101.363 48.8201 101.43 48.6341C101.498 48.4481 101.601 48.2773 101.734 48.1314C101.868 47.9855 102.028 47.8674 102.207 47.7839C102.386 47.7004 102.58 47.6531 102.777 47.6446L117.434 46.9248C117.651 46.8579 117.879 46.8409 118.103 46.8752C118.327 46.9095 118.54 46.9942 118.726 47.1229C118.913 47.2515 119.068 47.4208 119.18 47.6182C119.292 47.8155 119.358 48.0357 119.373 48.2623C119.389 48.4889 119.353 48.7159 119.268 48.9265C119.183 49.1371 119.052 49.3257 118.884 49.4783C118.716 49.6308 118.516 49.7432 118.299 49.8072C118.082 49.8713 117.853 49.8851 117.63 49.8479L102.972 50.5677L102.842 50.655Z" fill="#1D1D1B"/>
<path d="M92.0553 38.6573C91.8528 38.6574 91.6523 38.6169 91.4656 38.5382C91.2789 38.4596 91.1097 38.3443 90.9679 38.1993C90.8206 38.0587 90.7032 37.8895 90.623 37.702C90.5428 37.5145 90.5015 37.3126 90.5015 37.1086C90.5015 36.9046 90.5428 36.7027 90.623 36.5152C90.7032 36.3277 90.8206 36.1585 90.9679 36.0179L108.192 19.3304C108.48 19.0411 108.871 18.8786 109.279 18.8786C109.687 18.8786 110.078 19.0411 110.366 19.3304C110.655 19.6197 110.817 20.012 110.817 20.4211C110.817 20.8302 110.655 21.2225 110.366 21.5118L93.1426 38.1993C92.8498 38.4827 92.462 38.646 92.0553 38.6573Z" fill="#1D1D1B"/>
<path d="M86.2706 83.7464C82.7515 83.4403 79.3647 82.2554 76.4192 80.2998C76.0562 80.0856 75.7915 79.7371 75.6817 79.3293C75.5719 78.9215 75.6259 78.4868 75.832 78.1184C76.0459 77.7548 76.3917 77.4883 76.7969 77.3744C77.2022 77.2606 77.6357 77.3083 78.0067 77.5076C83.6392 80.7579 87.0535 81.1069 87.9234 79.9944C88.4888 79.2528 88.4236 78.9037 88.4018 78.7946C88.0974 77.3767 84.4221 75.3481 80.8773 73.4066C76.116 70.9477 71.6071 68.0251 67.4159 64.6812C67.2376 64.5543 67.0873 64.3918 66.9745 64.204C66.8617 64.0161 66.7887 63.8069 66.7603 63.5895C66.7319 63.372 66.7485 63.151 66.8092 62.9403C66.8699 62.7296 66.9733 62.5338 67.113 62.365C67.2527 62.1963 67.4256 62.0584 67.6209 61.9598C67.8162 61.8613 68.0297 61.8042 68.2481 61.7923C68.4664 61.7803 68.6848 61.8138 68.8896 61.8905C69.0944 61.9672 69.2813 62.0855 69.4384 62.238C73.5085 65.4392 77.8783 68.2372 82.4866 70.5927C87.445 73.3194 91.0115 75.2827 91.5987 78.1403C91.7161 78.8176 91.6793 79.5128 91.491 80.1739C91.3027 80.835 90.9678 81.4448 90.5113 81.9577C90.0023 82.5787 89.3502 83.0661 88.6114 83.3778C87.8725 83.6894 87.0691 83.816 86.2706 83.7464Z" fill="#1D1D1B"/>
<path d="M61.4356 67.9968C61.2263 67.999 61.0186 67.9597 60.8245 67.8811C60.6305 67.8024 60.4538 67.686 60.3047 67.5387C52.3888 59.5985 44.0162 48.8007 44.2336 42.322C44.2297 41.6139 44.3726 40.9128 44.6534 40.2631C44.9342 39.6134 45.3467 39.0294 45.8647 38.5483C46.3886 37.9904 47.0345 37.5621 47.7515 37.2971C48.4685 37.0321 49.2371 36.9377 49.9966 37.0213C52.3671 37.4794 53.6936 40.0534 55.7378 43.9799C57.0461 46.5752 58.4982 49.0949 60.0873 51.5274C60.318 51.8832 60.3983 52.3164 60.3106 52.7316C60.223 53.1468 59.9744 53.5101 59.6197 53.7415C59.265 53.973 58.8332 54.0536 58.4192 53.9656C58.0052 53.8777 57.6431 53.6284 57.4124 53.2726C55.8251 50.7414 54.3732 48.1274 53.0629 45.4414C51.7581 42.9329 50.4098 40.337 49.5617 40.1625C49.5617 40.1625 49.0397 40.1625 48.1264 40.9478C47.9332 41.1411 47.783 41.3732 47.6855 41.6288C47.5881 41.8845 47.5456 42.1579 47.5609 42.4311C47.4305 46.1177 52.0843 54.6032 62.7839 65.2701C63.008 65.4916 63.1614 65.7747 63.2247 66.0838C63.2881 66.3929 63.2584 66.7139 63.1396 67.006C63.0208 67.2981 62.8181 67.5483 62.5573 67.7247C62.2965 67.9011 61.9893 67.9958 61.6748 67.9968H61.4356Z" fill="#1D1D1B"/>
</svg>
