<svg width="100" height="100" viewBox="0 0 100 100" fill="none" xmlns="http://www.w3.org/2000/svg">
<path d="M50.0965 100C39.6769 99.9886 29.6874 95.8453 22.3196 88.4792C14.9518 81.113 10.8076 71.1255 10.7963 60.7082C10.7708 58.2457 10.9937 55.7869 11.4617 53.3691C11.5099 53.1367 11.6041 52.9163 11.7387 52.7208C11.8734 52.5253 12.0457 52.3587 12.2457 52.2307C12.4456 52.1028 12.6692 52.0161 12.9031 51.9757C13.1371 51.9354 13.3767 51.9422 13.608 51.9957C13.8419 52.0412 14.0641 52.1336 14.2612 52.2675C14.4583 52.4014 14.6262 52.5739 14.7546 52.7745C14.8831 52.9752 14.9694 53.1998 15.0085 53.4348C15.0475 53.6698 15.0384 53.9103 14.9817 54.1417C14.5185 56.3004 14.274 58.5004 14.252 60.7082C14.4805 70.0298 18.3448 78.8928 25.0199 85.4049C31.6951 91.917 40.652 95.5622 49.9784 95.5622C59.3049 95.5622 68.2618 91.917 74.937 85.4049C81.6121 78.8928 85.4764 70.0298 85.7049 60.7082C85.7049 37.6824 56.2352 9.82839 49.9677 4.16316C43.2903 10.2361 37.0837 16.8072 31.4015 23.8198C31.0868 24.083 30.6917 24.2311 30.2815 24.2396C29.8713 24.248 29.4704 24.1163 29.1452 23.8661C28.82 23.616 28.5898 23.2624 28.4927 22.8638C28.3956 22.4653 28.4374 22.0455 28.6112 21.6739C34.7616 14.0943 41.5162 7.02537 48.8087 0.536544C49.133 0.254262 49.5485 0.0987549 49.9784 0.0987549C50.4084 0.0987549 50.8239 0.254262 51.1482 0.536544C52.6936 1.86702 89.2679 33.5194 89.2679 60.8155C89.234 71.1937 85.0968 81.1375 77.7587 88.4781C70.4206 95.8186 60.4769 99.9604 50.0965 100Z" fill="#A85D50"/>
<path d="M55.355 92.382C54.9041 92.3886 54.4676 92.224 54.1333 91.9214C53.7991 91.6189 53.592 91.2008 53.5539 90.7516C53.5157 90.3025 53.6494 89.8555 53.9279 89.501C54.2064 89.1464 54.609 88.9107 55.0545 88.8412C59.6182 88.0158 63.913 86.0944 67.5696 83.2422C71.2262 80.3901 74.1351 76.6926 76.0461 72.4678C76.1433 72.2551 76.2816 72.0635 76.4528 71.9042C76.6241 71.7448 76.8251 71.6207 77.0443 71.539C77.2636 71.4573 77.4968 71.4196 77.7306 71.428C77.9644 71.4364 78.1943 71.4908 78.4071 71.588C78.6199 71.6852 78.8115 71.8234 78.9709 71.9946C79.1303 72.1659 79.2544 72.3669 79.3361 72.5861C79.4178 72.8053 79.4556 73.0384 79.4472 73.2721C79.4388 73.5059 79.3844 73.7357 79.2871 73.9485C77.1378 78.7001 73.866 82.8584 69.7532 86.0657C65.6404 89.273 60.8098 91.4332 55.6769 92.3605L55.355 92.382Z" fill="#A85D50"/>
<path d="M79.8882 67.854H79.5662C79.3294 67.8105 79.1036 67.7199 78.9023 67.5878C78.701 67.4556 78.5283 67.2844 78.3942 67.0844C78.2602 66.8844 78.1676 66.6595 78.1219 66.4231C78.0762 66.1868 78.0783 65.9436 78.1281 65.708C78.429 64.0439 78.5798 62.3562 78.5789 60.6651C78.5789 60.1927 78.7666 59.7397 79.1007 59.4057C79.4348 59.0717 79.8879 58.884 80.3604 58.884C80.8329 58.884 81.286 59.0717 81.6201 59.4057C81.9542 59.7397 82.1419 60.1927 82.1419 60.6651C82.1509 62.5646 81.9856 64.461 81.6482 66.3304C81.5864 66.7532 81.3747 67.1397 81.0516 67.4194C80.7285 67.6991 80.3155 67.8533 79.8882 67.854Z" fill="#A85D50"/>
<path d="M42.863 71.4163C42.4589 71.4145 42.0669 71.2787 41.7483 71.0302C41.4298 70.7816 41.2028 70.4344 41.103 70.0429C39.5576 63.1116 38.6776 62.2317 31.7447 60.6652C31.3491 60.5773 30.9953 60.3572 30.7417 60.0412C30.488 59.7252 30.3497 59.3322 30.3496 58.927C30.3497 58.5218 30.488 58.1288 30.7417 57.8128C30.9953 57.4968 31.3491 57.2767 31.7447 57.1888C38.6776 55.6223 39.5576 54.7425 41.103 47.8111C41.1952 47.4139 41.4195 47.0596 41.7392 46.8062C42.0589 46.5529 42.4551 46.4154 42.863 46.4163C43.2683 46.4164 43.6614 46.5547 43.9775 46.8082C44.2935 47.0618 44.5137 47.4156 44.6016 47.8111C46.1684 54.7425 47.0485 55.6223 53.9598 57.1888C54.3554 57.2767 54.7092 57.4968 54.9629 57.8128C55.2165 58.1288 55.3548 58.5218 55.3549 58.927C55.3548 59.3322 55.2165 59.7252 54.9629 60.0412C54.7092 60.3572 54.3554 60.5773 53.9598 60.6652C47.0485 62.2317 46.1684 63.1116 44.6016 70.0429C44.506 70.4326 44.2831 70.7793 43.9682 71.0281C43.6533 71.2769 43.2643 71.4135 42.863 71.4163ZM38.1839 58.927C40.2866 59.8278 41.962 61.5029 42.863 63.6051C43.7507 61.4939 45.4305 59.8145 47.5421 58.927C45.4343 58.0337 43.7565 56.3562 42.863 54.2489C41.9565 56.3474 40.2828 58.0207 38.1839 58.927Z" fill="#A85D50"/>
<path d="M85.7264 28.5622C85.3211 28.5621 84.928 28.4238 84.612 28.1702C84.2959 27.9166 84.0757 27.5629 83.9878 27.1673C82.142 19.0128 80.9829 17.8755 72.8267 16.03C72.431 15.9422 72.0772 15.722 71.8236 15.406C71.5699 15.09 71.4316 14.697 71.4315 14.2918C71.4307 13.884 71.5682 13.4879 71.8216 13.1683C72.075 12.8487 72.4293 12.6244 72.8267 12.5322C80.9829 10.7081 82.142 9.54934 83.9878 1.39484C84.0757 0.999301 84.2959 0.645536 84.612 0.391948C84.928 0.13836 85.3211 0.00012052 85.7264 0C86.1317 0.00012052 86.5248 0.13836 86.8409 0.391948C87.1569 0.645536 87.3771 0.999301 87.465 1.39484C89.3109 9.54934 90.4485 10.7081 98.6262 12.5322C99.0195 12.6286 99.369 12.8546 99.6182 13.1738C99.8674 13.4931 100.002 13.8869 99.9998 14.2918C100.005 14.6951 99.871 15.0877 99.6209 15.4042C99.3709 15.7206 99.0197 15.9415 98.6262 16.03C90.4485 17.8755 89.3109 19.0128 87.465 27.1673C87.3771 27.5629 87.1569 27.9166 86.8409 28.1702C86.5248 28.4238 86.1317 28.5621 85.7264 28.5622ZM79.5019 14.2918C80.9275 14.8118 82.2228 15.636 83.2977 16.707C84.3726 17.7779 85.2014 19.07 85.7264 20.4935C86.2479 19.0715 87.073 17.7801 88.1442 16.7091C89.2154 15.6381 90.5071 14.8132 91.9294 14.2918C90.5057 13.7669 89.2133 12.9383 88.1421 11.8636C87.0709 10.7889 86.2465 9.49395 85.7264 8.06865C85.2014 9.49468 84.373 10.7897 83.2983 11.8642C82.2235 12.9387 80.9282 13.767 79.5019 14.2918Z" fill="#A85D50"/>
<path d="M21.4209 61.9876C21.0156 61.9875 20.6225 61.8492 20.3064 61.5956C19.9903 61.342 19.7702 60.9883 19.6823 60.5928C16.6774 47.3524 14.6383 45.2923 1.37368 42.3095C0.982131 42.2097 0.634785 41.9828 0.386169 41.6643C0.137553 41.3458 0.0017363 40.9539 0 40.5499C0.00279427 40.1486 0.139424 39.7597 0.388249 39.4449C0.637074 39.13 0.983865 38.9072 1.37368 38.8116C14.6383 35.8288 16.6774 33.7688 19.6823 20.5284C19.7702 20.1329 19.9903 19.7791 20.3064 19.5255C20.6225 19.2719 21.0156 19.1337 21.4209 19.1335C21.8261 19.1337 22.2192 19.2719 22.5353 19.5255C22.8514 19.7791 23.0715 20.1329 23.1594 20.5284C26.1644 33.7688 28.2034 35.8288 41.4681 38.8116C41.8637 38.8995 42.2175 39.1196 42.4712 39.4356C42.7248 39.7517 42.8631 40.1447 42.8632 40.5499C42.8641 40.9577 42.7266 41.3538 42.4732 41.6734C42.2197 41.993 41.8654 42.2173 41.4681 42.3095C28.2034 45.2923 26.1644 47.3524 23.1594 60.5928C23.0715 60.9883 22.8514 61.342 22.5353 61.5956C22.2192 61.8492 21.8261 61.9875 21.4209 61.9876ZM8.73577 40.5284C15.9261 42.8889 19.0813 46.0219 21.4209 53.2322C23.7819 46.0219 26.9156 42.8889 34.1274 40.5284C26.9156 38.1893 23.7819 35.0348 21.4209 27.846C19.0813 34.9704 15.9261 38.2108 8.73577 40.5499V40.5284Z" fill="#A85D50"/>
</svg>
