<svg width="80" height="80" viewBox="0 0 80 80" fill="none" xmlns="http://www.w3.org/2000/svg">
<g clip-path="url(#clip0_4046_115)">
<path d="M56.6601 34C56.3557 33.5506 55.942 33.1879 55.4588 32.9467C54.9677 32.6793 54.4193 32.5374 53.8614 32.5333C53.2995 32.5016 52.7417 32.6461 52.264 32.9467C51.8032 33.2206 51.396 33.5776 51.0627 34C50.7601 34.4531 50.5327 34.9529 50.3895 35.48C50.3895 36 50.2574 36.6666 50.2574 37.1999C50.2716 37.7911 50.3604 38.3782 50.5215 38.9467C50.6705 39.4632 50.8976 39.9534 51.1947 40.4C51.4937 40.8608 51.9082 41.2334 52.3961 41.48C52.8935 41.7269 53.4392 41.859 53.9934 41.8666C54.5512 41.8912 55.1046 41.7573 55.5908 41.48C56.0529 41.1967 56.4599 40.8307 56.7921 40.4C57.0946 39.9565 57.3221 39.4654 57.4654 38.9467C57.617 38.3761 57.7055 37.7902 57.7294 37.1999C57.7174 36.6173 57.6286 36.0389 57.4654 35.48C57.3306 34.9236 57.0528 34.4131 56.6601 34Z" fill="#E56953"/>
<path d="M59.1947 4.63697e-05C49.4653 4.63697e-05 44.396 4.81333 40 12.5333C35.5908 4.66666 30.5215 4.63697e-05 20.7921 4.63697e-05C15.3043 -0.0176965 10.0335 2.16348 6.13576 6.06523C2.238 9.96698 0.0314308 15.2707 0 20.8134C0 29.7334 3.96039 39.48 12.264 50.5333C19.5908 60.28 29.3333 70 38.7987 79.48C38.9528 79.6434 39.1382 79.7735 39.3435 79.8623C39.5489 79.9512 39.77 79.997 39.9934 79.997C40.2168 79.997 40.4379 79.9512 40.6433 79.8623C40.8486 79.7735 41.034 79.6434 41.1881 79.48C50.6667 70 60.396 60.28 67.7228 50.5333C75.9868 39.48 79.9868 29.7334 79.9868 20.8134C79.9554 15.2707 77.7488 9.96698 73.851 6.06523C69.9533 2.16348 64.6825 -0.0176965 59.1947 4.63697e-05ZM30.7987 45.0667H19.868V29.3334H30.6667V32.5734H23.4587V35.6534H29.5974V38.5734H23.4587V41.9067H30.7987V45.0667ZM35.8548 38.8134C36.0008 39.3612 36.2773 39.8648 36.6601 40.2801C36.9678 40.7263 37.3807 41.0883 37.8614 41.3334C38.3475 41.612 38.9001 41.7504 39.4587 41.7334C39.7756 41.7451 40.0921 41.7046 40.396 41.6134C40.6601 41.4801 41.0561 41.3333 41.3333 41.2C41.6315 41.0227 41.899 40.7976 42.1254 40.5333C42.3776 40.2249 42.5621 39.8659 42.6667 39.48L45.5974 41.2C45.335 41.7956 44.9733 42.3414 44.5281 42.8134C44.066 43.2411 43.5765 43.6375 43.0627 44C42.4708 44.3074 41.8401 44.5317 41.1881 44.6667C40.5805 44.8325 39.9558 44.9265 39.3267 44.9467C38.3136 44.9415 37.3136 44.714 36.396 44.2801C35.4803 43.8797 34.6938 43.2284 34.1254 42.4C33.4606 41.6731 32.9606 40.8086 32.6601 39.8667C32.283 38.9837 32.1027 38.0278 32.132 37.0667C32.1152 36.1109 32.295 35.162 32.6601 34.2801C33.0153 33.3598 33.5096 32.5007 34.1254 31.7334C34.8116 31.0086 35.6267 30.4206 36.5281 30C37.5391 29.5677 38.6248 29.3411 39.7228 29.3334C40.9112 29.2872 42.0891 29.5741 43.126 30.1625C44.1628 30.7508 45.0182 31.6176 45.5974 32.6667L42.7987 34.6667C42.6536 34.2699 42.4237 33.9103 42.1254 33.6134C41.9027 33.3455 41.6344 33.1197 41.3333 32.9467C41.0469 32.8029 40.7515 32.6781 40.4488 32.5734C40.1848 32.5734 39.7756 32.4401 39.5116 32.4401C38.9098 32.4282 38.3148 32.5704 37.7822 32.8534C37.2882 33.1177 36.849 33.4752 36.4884 33.9067C36.1961 34.3608 35.9694 34.8546 35.8152 35.3733C35.653 35.9371 35.5643 36.5198 35.5512 37.1067C35.5806 37.6863 35.6826 38.2597 35.8548 38.8134ZM61.0561 40.2801C60.6492 41.1989 60.111 42.0523 59.4587 42.8134C58.7723 43.5774 57.925 44.1764 56.9792 44.5664C56.0334 44.9563 55.0132 45.1273 53.9934 45.0667C52.938 45.0593 51.8954 44.8324 50.9307 44.4C50.0279 43.982 49.2124 43.3937 48.5281 42.6667C47.8621 41.9434 47.3579 41.084 47.0495 40.1467C46.6792 39.2099 46.4953 38.2086 46.5083 37.2C46.4834 36.1991 46.6678 35.2041 47.0495 34.2801C47.447 33.3521 47.986 32.4928 48.6469 31.7334C49.3312 31.0064 50.1467 30.4181 51.0495 30C52.0142 29.5677 53.0568 29.3408 54.1122 29.3334C55.1662 29.3537 56.2062 29.5801 57.1749 30C58.1117 30.42 58.9354 31.0599 59.5776 31.8667C60.8543 33.3985 61.5637 35.3312 61.5842 37.3334C61.6186 38.3424 61.4385 39.3472 61.0561 40.2801Z" fill="#E56953"/>
</g>
<defs>
<clipPath id="clip0_4046_115">
<rect width="80" height="80" fill="white"/>
</clipPath>
</defs>
</svg>
