<svg width="80" height="80" viewBox="0 0 80 80" fill="none" xmlns="http://www.w3.org/2000/svg">
<g clip-path="url(#clip0_4051_121)">
<circle cx="40" cy="40" r="26" fill="#F6F2EA"/>
<path d="M78.8686 40.3802C79.9629 38.3791 80.3424 36.05 79.9418 33.7933C79.5412 31.5367 78.3856 29.4935 76.6735 28.0149L72.8442 24.7799C72.1711 24.2824 71.6066 23.6468 71.1867 22.9135C70.7668 22.1802 70.5006 21.3653 70.4052 20.5208L69.4052 15.2499C68.9917 12.9561 67.8012 10.8853 66.0432 9.40244C64.2853 7.91955 62.0727 7.11965 59.7954 7.1437H54.7954C53.1212 7.1683 51.491 6.5941 50.1857 5.51998L46.3808 2.28497C44.5965 0.80656 42.371 0 40.0759 0C37.7809 0 35.5553 0.80656 33.771 2.28497L29.771 5.51998C28.433 6.53188 26.8239 7.09864 25.1613 7.1437H20.1613C17.8833 7.11716 15.6696 7.91615 13.9111 9.39947C12.1527 10.8828 10.9627 12.955 10.5515 15.2499L9.74664 20.3209C9.46943 21.9983 8.60173 23.5136 7.30761 24.5801L3.50274 27.815C1.74079 29.3022 0.552571 31.3826 0.15044 33.6845C-0.251691 35.9863 0.158467 38.3596 1.30761 40.3802L3.90518 44.8392C4.76651 46.2998 5.0542 48.0409 4.71006 49.7105L3.90518 54.7066C3.51815 56.9884 3.92817 59.3369 5.06327 61.34C6.19837 63.3431 7.98602 64.8727 10.1125 65.6604L14.9174 67.484C16.2426 67.972 17.4171 68.8127 18.3198 69.9197C18.6857 70.4692 20.9174 74.9782 20.9174 74.9782C22.0513 77.0316 23.8733 78.5945 26.046 79.3776C28.2187 80.1607 30.5949 80.1109 32.7344 79.2373L37.5393 77.4138C39.1524 76.8016 40.9262 76.8016 42.5393 77.4138L47.3442 79.2373C49.4926 80.0169 51.8369 80.0194 53.9869 79.2445C56.1369 78.4696 57.963 76.964 59.1613 74.9782L61.954 69.9197C62.732 68.7682 63.8595 67.912 65.1613 67.484L69.9662 65.6604C72.0926 64.8727 73.8803 63.3431 75.0154 61.34C76.1505 59.3369 76.5605 56.9884 76.1735 54.7066L75.3686 49.7105C75.128 48.0404 75.4097 46.3352 76.1735 44.8392L78.8686 40.3802ZM40.0393 65.723C35.1578 65.6663 30.4017 64.1319 26.3696 61.313C22.3376 58.494 19.2098 54.5166 17.3799 49.8811C15.55 45.2456 15.0999 40.1593 16.086 35.2624C17.0722 30.3654 19.4507 25.8767 22.9221 22.3611C26.3935 18.8456 30.8027 16.4603 35.5947 15.5055C40.3868 14.5507 45.3475 15.0691 49.8526 16.9954C54.3576 18.9217 58.2056 22.1698 60.9123 26.3309C63.619 30.492 65.0634 35.3802 65.0637 40.3802C65.025 47.1391 62.3671 53.6057 57.6745 58.358C52.9818 63.1104 46.6386 65.7595 40.0393 65.723Z" fill="#E56953"/>
<path d="M53.4779 36.9436C53.1111 36.5278 52.6238 36.2433 52.0876 36.1317H43.4779L40.8681 27.8257C40.799 27.5598 40.6361 27.3295 40.4108 27.1796C40.1855 27.0296 39.9139 26.9706 39.6486 27.0138C39.3913 27.0178 39.1404 27.0961 38.9246 27.2397C38.7088 27.3834 38.5371 27.5865 38.4291 27.8257L35.8925 36.1567H27.2828C27.0251 36.1591 26.7735 36.2368 26.5575 36.3806C26.3415 36.5244 26.17 36.7284 26.0633 36.9686C25.9842 37.2189 25.9791 37.4876 26.0486 37.7409C26.118 37.9941 26.2589 38.2208 26.4535 38.3924L33.4657 43.451L30.8681 51.7695C30.7795 52.0168 30.7695 52.2866 30.8396 52.5401C30.9097 52.7936 31.0563 53.0179 31.2584 53.1809C31.4657 53.3932 31.6608 53.3932 32.0632 53.3932C32.4657 53.3932 32.6608 53.3932 32.8681 53.1809L39.8681 48.1224L46.8803 53.1809C46.9704 53.2788 47.0791 53.3568 47.1997 53.4101C47.3202 53.4635 47.4502 53.491 47.5815 53.491C47.7129 53.491 47.8429 53.4635 47.9635 53.4101C48.084 53.3568 48.1927 53.2788 48.2828 53.1809C48.4848 53.0179 48.6314 52.7936 48.7015 52.5401C48.7716 52.2866 48.7616 52.0168 48.673 51.7695L46.0755 43.451L53.0877 38.3924C53.2974 38.227 53.449 37.9962 53.5194 37.7348C53.5898 37.4734 53.5752 37.1957 53.4779 36.9436ZM43.7218 42.0146C43.5176 42.1761 43.3686 42.3996 43.2963 42.6532C43.224 42.9068 43.2321 43.1774 43.3194 43.426L45.1242 48.9093L40.5145 45.4619C40.3194 45.2496 40.1243 45.2496 39.7218 45.2496C39.3194 45.2496 39.1242 45.2496 38.9169 45.4619L34.3193 48.9093L36.112 43.426C36.2006 43.1787 36.2106 42.909 36.1405 42.6555C36.0704 42.402 35.9239 42.1777 35.7218 42.0146L31.112 38.7672H36.7218C36.9801 38.7679 37.233 38.6914 37.4496 38.5472C37.6662 38.403 37.837 38.1973 37.9413 37.9553L39.7462 32.4846L41.5511 37.9553C41.6202 38.2212 41.7831 38.4514 42.0084 38.6014C42.2337 38.7514 42.5053 38.8105 42.7706 38.7672H48.3803L43.7218 42.0146Z" fill="#E56953"/>
</g>
<defs>
<clipPath id="clip0_4051_121">
<rect width="80" height="80" fill="white"/>
</clipPath>
</defs>
</svg>
