<svg width="98" height="99" viewBox="0 0 98 99" fill="none" xmlns="http://www.w3.org/2000/svg">
<path d="M49.0945 98.021C38.8833 98.0098 29.0936 93.9485 21.8732 86.7281C14.6527 79.5077 10.5914 69.7179 10.5803 59.5067C10.5553 57.093 10.7737 54.6829 11.2324 52.3129C11.2796 52.0851 11.3719 51.8691 11.5039 51.6774C11.6358 51.4858 11.8047 51.3225 12.0007 51.1971C12.1967 51.0716 12.4157 50.9867 12.645 50.9471C12.8743 50.9076 13.1092 50.9142 13.3358 50.9667C13.565 51.0113 13.7828 51.1019 13.976 51.2331C14.1691 51.3643 14.3336 51.5334 14.4595 51.7301C14.5854 51.9268 14.67 52.1469 14.7082 52.3773C14.7465 52.6076 14.7376 52.8434 14.682 53.0702C14.2281 55.1862 13.9885 57.3427 13.9669 59.5067C14.1908 68.6439 17.9779 77.3315 24.5195 83.7148C31.0611 90.098 39.8389 93.671 48.9788 93.671C58.1188 93.671 66.8966 90.098 73.4382 83.7148C79.9798 77.3315 83.7668 68.6439 83.9908 59.5067C83.9908 36.9367 55.1104 9.63389 48.9683 4.08077C42.4244 10.0335 36.342 16.4746 30.7734 23.3484C30.4651 23.6064 30.0779 23.7516 29.6758 23.7599C29.2738 23.7681 28.881 23.639 28.5622 23.3938C28.2435 23.1486 28.0179 22.8021 27.9228 22.4114C27.8277 22.0207 27.8686 21.6092 28.039 21.2449C34.0664 13.8153 40.6859 6.88633 47.8325 0.525927C48.1503 0.249231 48.5574 0.0968018 48.9788 0.0968018C49.4002 0.0968018 49.8074 0.249231 50.1252 0.525927C51.6397 1.83007 87.4825 32.856 87.4825 59.6119C87.4493 69.7848 83.3949 79.5318 76.2035 86.7271C69.0121 93.9224 59.2673 97.9822 49.0945 98.021Z" fill="#1D1D1B"/>
<path d="M54.2479 90.5537C53.8061 90.5601 53.3782 90.3988 53.0507 90.1023C52.7231 89.8057 52.5202 89.3959 52.4828 88.9556C52.4455 88.5153 52.5765 88.0772 52.8494 87.7297C53.1223 87.3822 53.5168 87.1511 53.9534 87.083C58.4258 86.2739 62.6347 84.3905 66.2182 81.5948C69.8017 78.7991 72.6524 75.1748 74.5252 71.0336C74.6205 70.8251 74.7559 70.6374 74.9238 70.4811C75.0917 70.3249 75.2886 70.2033 75.5035 70.1232C75.7183 70.0432 75.9469 70.0062 76.176 70.0144C76.4052 70.0227 76.6305 70.076 76.839 70.1713C77.0476 70.2666 77.2353 70.402 77.3915 70.5698C77.5477 70.7377 77.6693 70.9347 77.7494 71.1495C77.8295 71.3644 77.8665 71.5929 77.8582 71.8221C77.85 72.0512 77.7967 72.2765 77.7014 72.485C75.5951 77.1425 72.3887 81.2186 68.3582 84.3624C64.3276 87.5062 59.5936 89.6237 54.5634 90.5327L54.2479 90.5537Z" fill="#1D1D1B"/>
<path d="M78.2904 66.5112H77.9749C77.7428 66.4685 77.5216 66.3798 77.3243 66.2502C77.127 66.1207 76.9577 65.9529 76.8264 65.7568C76.695 65.5608 76.6042 65.3404 76.5595 65.1087C76.5147 64.8769 76.5167 64.6386 76.5656 64.4077C76.8604 62.7765 77.0083 61.1222 77.0073 59.4646C77.0073 59.0016 77.1913 58.5575 77.5187 58.2301C77.8461 57.9027 78.2901 57.7188 78.7532 57.7188C79.2162 57.7188 79.6603 57.9027 79.9877 58.2301C80.3151 58.5575 80.499 59.0016 80.499 59.4646C80.5079 61.3265 80.3459 63.1853 80.0152 65.0177C79.9547 65.4321 79.7472 65.811 79.4305 66.0852C79.1139 66.3593 78.7093 66.5105 78.2904 66.5112Z" fill="#1D1D1B"/>
<path d="M42.0058 70.0029C41.6098 70.0012 41.2256 69.8681 40.9134 69.6245C40.6013 69.3808 40.3788 69.0404 40.281 68.6567C38.7665 61.8626 37.9041 61.0001 31.1099 59.4646C30.7222 59.3785 30.3755 59.1627 30.1269 58.853C29.8783 58.5432 29.7428 58.158 29.7427 57.7608C29.7428 57.3637 29.8783 56.9784 30.1269 56.6687C30.3755 56.3589 30.7222 56.1432 31.1099 56.057C37.9041 54.5215 38.7665 53.6591 40.281 46.8649C40.3714 46.4755 40.5912 46.1283 40.9045 45.8799C41.2178 45.6316 41.606 45.4968 42.0058 45.4977C42.403 45.4978 42.7882 45.6333 43.098 45.8819C43.4077 46.1305 43.6235 46.4772 43.7096 46.8649C45.2451 53.6591 46.1075 54.5215 52.8807 56.057C53.2684 56.1432 53.6151 56.3589 53.8637 56.6687C54.1123 56.9784 54.2478 57.3637 54.2479 57.7608C54.2478 58.158 54.1123 58.5432 53.8637 58.853C53.6151 59.1627 53.2684 59.3785 52.8807 59.4646C46.1075 61.0001 45.2451 61.8626 43.7096 68.6567C43.616 69.0387 43.3975 69.3786 43.0889 69.6224C42.7803 69.8663 42.3991 70.0002 42.0058 70.0029ZM37.4203 57.7608C39.4809 58.6438 41.1228 60.2857 42.0058 62.3464C42.8758 60.277 44.5219 58.6308 46.5913 57.7608C44.5257 56.8852 42.8814 55.2409 42.0058 53.1753C41.1174 55.2323 39.4772 56.8724 37.4203 57.7608Z" fill="#1D1D1B"/>
<path d="M84.0119 27.997C83.6148 27.9968 83.2295 27.8613 82.9198 27.6127C82.61 27.3642 82.3943 27.0174 82.3081 26.6297C80.4992 18.6366 79.3633 17.5218 71.3702 15.7128C70.9825 15.6267 70.6357 15.4109 70.3871 15.1011C70.1386 14.7914 70.0031 14.4061 70.0029 14.009C70.0021 13.6092 70.1368 13.221 70.3852 12.9077C70.6335 12.5944 70.9808 12.3746 71.3702 12.2842C79.3633 10.4962 80.4992 9.36035 82.3081 1.36723C82.3943 0.979525 82.61 0.63276 82.9198 0.384191C83.2295 0.135622 83.6148 0.000118135 84.0119 0C84.4091 0.000118135 84.7943 0.135622 85.1041 0.384191C85.4138 0.63276 85.6296 0.979525 85.7157 1.36723C87.5247 9.36035 88.6395 10.4962 96.6537 12.2842C97.0392 12.3787 97.3817 12.6002 97.6259 12.9131C97.8701 13.226 98.0019 13.612 97.9999 14.009C98.0047 14.4042 97.8736 14.7892 97.6286 15.0993C97.3835 15.4095 97.0393 15.6261 96.6537 15.7128C88.6395 17.5218 87.5247 18.6366 85.7157 26.6297C85.6296 27.0174 85.4138 27.3642 85.1041 27.6127C84.7943 27.8613 84.4091 27.9968 84.0119 27.997ZM77.9119 14.009C79.309 14.5187 80.5783 15.3265 81.6318 16.3763C82.6852 17.4261 83.4974 18.6926 84.0119 20.088C84.523 18.694 85.3315 17.4282 86.3813 16.3784C87.4311 15.3286 88.697 14.52 90.0909 14.009C88.6956 13.4944 87.429 12.6822 86.3793 11.6288C85.3295 10.5754 84.5217 9.30606 84.0119 7.90897C83.4975 9.30677 82.6855 10.5762 81.6323 11.6294C80.5791 12.6826 79.3097 13.4945 77.9119 14.009Z" fill="#1D1D1B"/>
<path d="M20.9925 60.7608C20.5953 60.7607 20.21 60.6252 19.9003 60.3766C19.5905 60.1281 19.3748 59.7813 19.2887 59.3936C16.3438 46.4153 14.3456 44.396 1.34621 41.4722C0.962489 41.3744 0.62209 41.1519 0.378446 40.8397C0.134802 40.5276 0.00170157 40.1434 0 39.7474C0.00273838 39.3541 0.136635 38.9729 0.380484 38.6643C0.624332 38.3556 0.964188 38.1372 1.34621 38.0435C14.3456 35.1197 16.3438 33.1005 19.2887 20.1221C19.3748 19.7344 19.5905 19.3877 19.9003 19.1391C20.21 18.8905 20.5953 18.755 20.9925 18.7549C21.3896 18.755 21.7749 18.8905 22.0846 19.1391C22.3944 19.3877 22.6101 19.7344 22.6962 20.1221C25.6411 33.1005 27.6394 35.1197 40.6387 38.0435C41.0264 38.1297 41.3732 38.3454 41.6217 38.6552C41.8703 38.965 42.0058 39.3502 42.006 39.7474C42.0068 40.1471 41.872 40.5354 41.6237 40.8487C41.3754 41.1619 41.0281 41.3818 40.6387 41.4722C27.6394 44.396 25.6411 46.4153 22.6962 59.3936C22.6101 59.7813 22.3944 60.1281 22.0846 60.3766C21.7749 60.6252 21.3896 60.7607 20.9925 60.7608ZM8.56105 39.7263C15.6076 42.0401 18.6997 45.1112 20.9925 52.1788C23.3063 45.1112 26.3773 42.0401 33.4449 39.7263C26.3773 37.4336 23.3063 34.3415 20.9925 27.2949C18.6997 34.2784 15.6076 37.4546 8.56105 39.7474V39.7263Z" fill="#1D1D1B"/>
</svg>
