<svg width="80" height="81" viewBox="0 0 80 81" fill="none" xmlns="http://www.w3.org/2000/svg">
<g clip-path="url(#clip0_4067_148)">
<path d="M0.869857 48.2778C0.869857 48.1932 0.869872 48.1085 0.809467 48.036C0.749063 47.9634 0.845695 48.2778 0.869857 48.2778Z" fill="white"/>
<path d="M79.9999 40.298C79.9999 40.9147 79.9999 41.5071 79.9999 42.16C79.9757 41.5433 79.9878 40.9147 79.9999 40.298Z" fill="white"/>
<path d="M79.8669 43.1272C79.8669 43.502 79.8669 43.8768 79.7823 44.2516C79.8186 43.8768 79.8428 43.502 79.8669 43.1272Z" fill="white"/>
<path d="M79.6374 45.3398C79.6374 45.6541 79.5649 45.9806 79.5045 46.307C79.5649 45.9806 79.6011 45.6541 79.6374 45.3398Z" fill="white"/>
<path d="M0.507437 46.3433C0.507437 46.2587 0.507437 46.174 0.507437 46.0894C0.507437 46.0048 0.447033 46.2587 0.507437 46.3433Z" fill="white"/>
<path d="M55.7413 76.8358C55.2339 77.0534 54.7144 77.259 54.1949 77.4524C54.7144 77.2953 55.2339 77.0534 55.7413 76.8358Z" fill="white"/>
<path d="M44.2524 79.8343C43.4671 79.9068 42.6818 79.9673 41.8362 80.0035C42.7302 79.9673 43.4671 79.9068 44.2524 79.8343Z" fill="white"/>
<path d="M46.9223 79.4474C46.3907 79.5441 45.8592 79.6166 45.3276 79.6892C45.8592 79.6166 46.3545 79.5441 46.9223 79.4474Z" fill="white"/>
<path d="M79.3112 47.4435C79.3112 47.7337 79.2025 48.036 79.1421 48.3261C79.2025 48.036 79.2508 47.7337 79.3112 47.4435Z" fill="white"/>
<path d="M77.7649 53.4042C77.6803 53.6581 77.5837 53.912 77.4871 54.1538C77.5233 53.912 77.6199 53.6581 77.7649 53.4042Z" fill="white"/>
<path d="M63.0746 65.9422L57.469 55.5322C57.3052 55.2131 57.0783 54.9308 56.8021 54.7021C56.5259 54.4735 56.2061 54.3034 55.8622 54.2022C55.5318 54.1096 55.1862 54.0842 54.8458 54.1279C54.5055 54.1715 54.1773 54.2831 53.8809 54.4561L33.0655 65.6158C32.422 65.9376 31.9283 66.4967 31.6883 67.1754C31.5827 67.5194 31.5486 67.8813 31.5881 68.239C31.6275 68.5966 31.7397 68.9424 31.9178 69.255L37.5959 79.8101L37.6925 79.9915C38.4536 79.9915 39.2027 79.9915 39.9638 79.9915C40.4712 79.9915 40.9665 79.9915 41.4739 79.9915C41.2569 79.2948 40.9525 78.6286 40.5678 78.0087L35.3488 68.3362L54.8112 57.8657L59.9577 67.4414C60.499 68.619 61.2714 69.6757 62.2289 70.5487L63.8961 72.1326C64.8263 71.4434 65.7203 70.6938 66.5901 69.92L64.5605 67.9734C63.9458 67.3925 63.4422 66.7041 63.0746 65.9422ZM46.874 60.4893L46.9828 60.4289H47.0794L46.874 60.4893Z" fill="white"/>
<path d="M74.2735 60.6828C74.1768 60.8399 74.0681 60.9971 73.9714 61.1663C74.0681 60.9971 74.1406 60.8399 74.2735 60.6828Z" fill="white"/>
<path d="M39.9999 0.0121024C45.2522 0.0105143 50.4534 1.0445 55.3063 3.05497C60.1593 5.06545 64.5689 8.01303 68.2834 11.7294C71.9979 15.4457 74.9445 19.858 76.9548 24.7142C78.9652 29.5705 79.9998 34.7755 79.9998 40.032C79.9998 29.4148 75.7856 19.2326 68.2841 11.7251C60.7827 4.21764 50.6086 0 39.9999 0C29.3913 0 19.2171 4.21764 11.7157 11.7251C4.21426 19.2326 0 29.4148 0 40.032C0.00640385 29.4179 4.22312 19.2406 11.7235 11.7365C19.2239 4.23232 29.3943 0.0153052 39.9999 0.0121024Z" fill="white"/>
<path d="M76.9796 55.3024C76.883 55.5442 76.7863 55.774 76.6776 56.0037C76.7863 55.774 76.883 55.5322 76.9796 55.3024Z" fill="white"/>
<path d="M48.0821 38.0371C47.7558 37.3274 47.1667 36.7724 46.4391 36.4894C46.0212 36.3447 45.5768 36.2924 45.1367 36.3362C44.6966 36.3801 44.2713 36.519 43.8901 36.7434L23.7874 47.5644C23.4113 47.7411 23.0774 47.9962 22.808 48.3128C22.5386 48.6293 22.34 48.9999 22.2255 49.3996C22.1111 49.7993 22.0835 50.2189 22.1445 50.6301C22.2055 51.0414 22.3538 51.4349 22.5793 51.7841L28.3902 62.5931C28.5284 62.8617 28.7213 63.0983 28.9565 63.2878C29.1916 63.4773 29.4637 63.6154 29.7554 63.6933C30.2667 63.8213 30.8069 63.7612 31.2776 63.524H31.3501L41.6189 57.9986L52.9024 51.9533C53.457 51.7066 53.8913 51.2502 54.1105 50.6838C54.2052 50.3958 54.2391 50.0913 54.21 49.7895C54.1808 49.4877 54.0894 49.1952 53.9414 48.9306L48.0821 38.0371ZM41.0994 54.3231L40.5195 54.6374L30.8547 59.8727L25.817 50.442L45.1465 39.9836L50.1842 49.3539L41.0994 54.3231Z" fill="white"/>
<path d="M33.4883 37.5776C32.2802 35.3167 30.9151 33.092 29.8036 30.7585C29.0398 29.4039 28.7227 27.8426 28.8975 26.2971C29.6828 22.0533 36.0616 23.879 38.7435 24.5802C40.9423 25.1485 43.0685 25.62 44.5665 23.4678C45.7746 21.8114 45.3517 19.8407 45.1101 17.9787C44.4245 13.2481 43.5011 8.555 42.3436 3.91734C41.7033 1.19695 37.5113 2.16419 38.1153 4.88458C39.3099 9.59273 40.2416 14.3638 40.906 19.1757C40.906 19.5505 40.906 20.2518 41.0027 20.6991L40.6644 20.6024C40.0724 20.4452 39.4563 20.288 38.8764 20.155C36.7744 19.5607 34.5972 19.2756 32.4131 19.3087C28.0882 19.5747 24.5363 22.4523 24.5001 26.9983C24.4638 31.5444 27.5445 35.7761 29.6707 39.633C31.0117 42.0753 34.8293 40.032 33.4883 37.5776Z" fill="white"/>
<path d="M46.874 60.4893L47.0794 60.3805H46.9828L46.874 60.4893Z" fill="#E56953"/>
<path d="M73.9714 61.1664C73.7177 61.5653 73.464 61.9764 73.1982 62.3754C73.464 61.9764 73.7177 61.5774 73.9714 61.1664Z" fill="#E56953"/>
<path d="M74.9379 59.522C74.7204 59.9089 74.503 60.3079 74.2734 60.7311C74.503 60.3684 74.7204 59.9089 74.9379 59.522Z" fill="#E56953"/>
<path d="M3.92636 57.3336C3.66864 56.8017 3.42705 56.2697 3.20154 55.7377C3.4351 56.2697 3.67669 56.8017 3.92636 57.3336Z" fill="#E56953"/>
<path d="M6.81363 62.3754C6.47537 61.8676 6.14919 61.3599 5.83508 60.84C6.14919 61.3599 6.48745 61.8676 6.81363 62.3754Z" fill="#E56953"/>
<path d="M66.6022 69.9321L66.8679 69.6903L66.5901 69.92L66.6022 69.9321Z" fill="#E56953"/>
<path d="M9.14526 65.4948C12.6487 69.7623 16.9992 73.2553 21.9215 75.7528C26.8438 78.2502 32.2306 79.6977 37.7408 80.0035C32.2315 79.6933 26.8462 78.244 21.9245 75.7468C17.0029 73.2497 12.6517 69.7589 9.14526 65.4948Z" fill="#E56953"/>
<path d="M7.93716 63.9956C7.57473 63.4999 7.21229 62.9921 6.86194 62.4843C7.21229 62.9558 7.57473 63.4636 7.93716 63.9956Z" fill="#E56953"/>
<path d="M0.20539 44.1065C0.20539 43.4657 0.0966676 42.8129 0.0604248 42.1721C0.0966676 42.8129 0.144985 43.4415 0.20539 44.1065Z" fill="#E56953"/>
<path d="M79.9515 42.1599C79.9515 42.4864 79.9515 42.8007 79.8669 43.1272C79.9032 42.8007 79.9274 42.4864 79.9515 42.1599Z" fill="#E56953"/>
<path d="M79.7824 44.2516C79.7824 44.6143 79.6858 44.9771 79.6375 45.3398C79.6858 44.9771 79.7462 44.6506 79.7824 44.2516Z" fill="#E56953"/>
<path d="M79.5045 46.307C79.5045 46.6818 79.3838 47.0687 79.3113 47.4435C79.3838 47.0687 79.4562 46.6818 79.5045 46.307Z" fill="#E56953"/>
<path d="M78.6589 50.3211C78.5622 50.708 78.4535 51.0828 78.3326 51.4697C78.4535 51.0828 78.5622 50.6959 78.6589 50.3211Z" fill="#E56953"/>
<path d="M0.809347 48.0602C0.700619 47.4919 0.591891 46.8511 0.507324 46.3433C0.591891 46.9237 0.700619 47.4919 0.809347 48.0602Z" fill="#E56953"/>
<path d="M1.78795 51.905C1.61881 51.3609 1.46174 50.8047 1.31677 50.2486C1.46174 50.7806 1.65506 51.3367 1.78795 51.905Z" fill="#E56953"/>
<path d="M1.25635 49.9825C1.11138 49.4264 0.99056 48.8703 0.869751 48.302C0.978479 48.8703 1.11138 49.4868 1.25635 49.9825Z" fill="#E56953"/>
<path d="M3.1289 55.5322C2.89936 55.0002 2.69402 54.4561 2.48865 53.912C2.69402 54.4802 2.86312 55.0244 3.1289 55.5322Z" fill="#E56953"/>
<path d="M79.1422 48.2778C79.0576 48.6647 78.9609 49.0516 78.8763 49.4869C78.973 49.1 79.0576 48.7131 79.1422 48.2778Z" fill="#E56953"/>
<path d="M0.44694 46.0894C0.3664 45.4929 0.293924 44.9005 0.229492 44.312C0.301978 44.9085 0.374454 45.501 0.44694 46.0894Z" fill="#E56953"/>
<path d="M2.41622 53.7428C2.22293 53.1987 2.04169 52.6546 1.86047 52.0984C2.02961 52.6546 2.22293 53.1987 2.41622 53.7428Z" fill="#E56953"/>
<path d="M73.9714 61.1664C74.0681 60.9971 74.1768 60.8399 74.2734 60.6828C74.503 60.308 74.7204 59.909 74.9379 59.4737L75.2641 58.8934L75.8439 57.6843L76.1702 57.0435L76.6775 55.8344C76.7863 55.6047 76.8829 55.375 76.9796 55.1332C77.0762 54.8913 77.2816 54.3714 77.4265 53.9845C77.5715 53.5976 77.6199 53.4888 77.7045 53.2349C77.789 52.981 77.9702 52.4732 78.0911 52.0259C78.2119 51.5785 78.2601 51.506 78.3326 51.24C78.4051 50.974 78.5622 50.4783 78.6588 50.0914L78.8763 49.245C78.9608 48.8702 79.0575 48.4833 79.1421 48.036C79.2267 47.5886 79.2508 47.4436 79.3112 47.1534C79.3716 46.8632 79.4562 46.3917 79.5045 46.0169C79.5528 45.642 79.6011 45.364 79.6374 45.0496C79.6736 44.7353 79.7461 44.3242 79.7823 43.9614C79.8186 43.5987 79.8428 43.2118 79.8669 42.837C79.8911 42.4622 79.8669 42.1962 79.9515 41.8698C79.9515 41.2532 79.9515 40.6607 79.9515 40.0078V39.7418C79.9515 29.1247 75.7372 18.9424 68.2358 11.4349C60.7343 3.92749 50.5602 -0.290192 39.9516 -0.290192C29.3429 -0.290192 19.1688 3.92749 11.6674 11.4349C4.16592 18.9424 -0.0483398 29.1247 -0.0483398 39.7418C-0.0483398 40.431 -0.0483398 41.1081 -0.0483398 41.7851V42.2325C-0.0483398 42.8733 0.0362207 43.5262 0.0966253 44.167V44.3726C0.153003 44.969 0.22548 45.5614 0.314073 46.1498C0.314073 46.2345 0.314073 46.3191 0.314073 46.4038C0.39864 46.972 0.507368 47.6128 0.616096 48.1206C0.616096 48.1932 0.616081 48.2778 0.676486 48.3624C0.797295 48.9307 0.918113 49.4869 1.06308 50.0431C1.08889 50.1221 1.10906 50.2029 1.12347 50.2848C1.26845 50.841 1.42551 51.3972 1.59465 51.9413L1.66713 52.1589C1.84834 52.7151 2.02951 53.2591 2.22281 53.8032L2.29536 53.9966C2.50074 54.5407 2.70608 55.0848 2.93561 55.6168L3.0081 55.7981C3.24166 56.3301 3.48325 56.8621 3.73292 57.3941L3.80548 57.5392C4.07126 58.0712 4.33702 58.6031 4.61488 59.123L4.68736 59.244C4.9773 59.776 5.26723 60.2958 5.58134 60.8036C5.59872 60.8375 5.61891 60.8699 5.64173 60.9004C5.95583 61.4203 6.28201 61.9281 6.62028 62.4359V62.5085C6.97063 63.0163 7.33307 63.5241 7.6955 64.0198C8.06598 64.5276 8.46868 65.0233 8.90359 65.5069C12.4086 69.7696 16.7579 73.2595 21.6774 75.7566C26.5969 78.2536 31.9798 79.7038 37.487 80.0156L37.3904 79.8343L31.7124 69.2792C31.5343 68.9666 31.4221 68.6208 31.3826 68.2632C31.3432 67.9055 31.3772 67.5436 31.4828 67.1996C31.7229 66.5209 32.2166 65.9618 32.8601 65.6399L53.6393 54.4561C53.9357 54.2831 54.2638 54.1715 54.6041 54.1278C54.9445 54.0842 55.2901 54.1096 55.6205 54.2022C55.9644 54.3034 56.2841 54.4735 56.5603 54.7021C56.8365 54.9307 57.0634 55.2131 57.2273 55.5322L62.8328 65.9664C63.2005 66.7283 63.7041 67.4166 64.3188 67.9976L66.3484 69.9441L66.6263 69.7144L66.8074 69.5331C69.044 67.4829 71.0383 65.1827 72.7512 62.6777L72.9567 62.3996C73.4641 61.9764 73.7177 61.5774 73.9714 61.1664ZM32.4131 19.2603C34.5971 19.2272 36.7743 19.5124 38.8764 20.1067C39.4804 20.2397 40.0844 20.3969 40.6643 20.554L41.0026 20.6508C40.906 20.2034 41.0026 19.4417 40.9059 19.1274C40.2415 14.3155 39.3099 9.54441 38.1153 4.83625C37.475 2.11586 41.7395 1.14863 42.3436 3.86902C43.5149 8.52197 44.4503 13.2312 45.1464 17.9787C45.388 19.8649 45.7504 21.8114 44.6027 23.4678C43.1047 25.62 40.9784 25.1485 38.7797 24.5802C36.0977 23.8911 29.719 22.0533 28.9338 26.2971C28.759 27.8426 29.0761 29.4039 29.8398 30.7585C30.9513 33.092 32.256 35.3167 33.5245 37.5776C34.8655 39.9958 31.0479 42.0753 29.7069 39.633C27.5807 35.7761 24.5001 31.6049 24.5363 26.9984C24.5725 22.3918 28.0881 19.5747 32.4131 19.2603ZM54.0621 50.5508C53.8429 51.1172 53.4085 51.5736 52.854 51.8203L41.5704 57.8656L31.3016 63.3911H31.2291C30.7584 63.6282 30.2182 63.6883 29.7069 63.5603C29.4152 63.4825 29.1431 63.3443 28.908 63.1548C28.6729 62.9653 28.48 62.7287 28.3418 62.4601L22.5309 51.651C22.3054 51.3019 22.1571 50.9085 22.0961 50.4972C22.0351 50.0859 22.0627 49.6663 22.1771 49.2666C22.2916 48.8669 22.4901 48.4963 22.7595 48.1798C23.0289 47.8633 23.3629 47.6081 23.739 47.4314L43.9383 36.7434C44.3195 36.519 44.7448 36.3801 45.1849 36.3363C45.625 36.2924 46.0694 36.3447 46.4873 36.4895C47.2149 36.7724 47.804 37.3274 48.1303 38.0371L53.9413 48.846C54.0814 49.114 54.1644 49.4082 54.1852 49.7099C54.206 50.0117 54.1641 50.3145 54.0621 50.5992V50.5508ZM58.3508 20.9046C58.532 20.9046 58.3508 20.7112 58.3508 20.6628C58.3424 20.727 58.3424 20.7921 58.3508 20.8563C58.2541 20.6629 58.2662 20.6265 58.3508 20.6628L58.9065 20.82C58.4354 21.1102 58.2662 21.1465 58.3508 20.9531V20.9046Z" fill="#E56953"/>
<path d="M25.7686 50.4541L30.8063 59.8243L40.5194 54.5891L41.0872 54.2868L50.2324 49.3659L45.1947 39.9957L25.7686 50.4541Z" fill="#E56953"/>
<path d="M62.0597 73.39C61.665 73.656 61.2623 73.9099 60.8516 74.1517C61.2945 73.9099 61.6972 73.656 62.0597 73.39Z" fill="#E56953"/>
<path d="M51.344 78.4197C50.9574 78.5285 50.5708 78.6494 50.1359 78.7461C50.5708 78.6494 50.9574 78.5043 51.344 78.4197Z" fill="#E56953"/>
<path d="M59.9576 67.4414L54.8112 57.8656L35.385 68.324L40.604 77.9965C40.9886 78.6164 41.2931 79.2827 41.51 79.9793H41.8846C42.6819 79.9793 43.4672 79.8827 44.3007 79.8101L45.376 79.665C45.9075 79.5925 46.4391 79.5199 46.9706 79.4232L48.0459 79.2297C48.7868 79.0846 49.5117 78.9154 50.2204 78.7219C50.6191 78.6252 51.0057 78.5043 51.4285 78.3955L52.7453 77.9723C53.2527 77.803 53.7722 77.6217 54.2796 77.4282C54.787 77.2348 55.3186 77.0292 55.826 76.8116L57.0341 76.2555L58.0609 75.7476C58.7133 75.4212 59.3536 75.0706 59.9938 74.7078C60.32 74.5144 60.6462 74.3331 60.9724 74.1275C61.2986 73.922 61.7697 73.6318 62.1805 73.3658L63.0624 72.7492L63.9685 72.1084L62.3013 70.5245C61.3204 69.6655 60.5231 68.6167 59.9576 67.4414Z" fill="#E56953"/>
<path d="M58.4354 20.9046C58.4271 20.8404 58.4271 20.7754 58.4354 20.7112C58.4354 20.7112 58.2783 20.7112 58.4354 20.9046Z" fill="#E56953"/>
<path d="M58.3266 20.7112C58.387 20.7112 58.532 20.9893 58.3266 20.953C58.242 21.1465 58.4112 21.1102 58.8462 20.8442L58.2904 20.687L58.3266 20.7112Z" fill="white"/>
</g>
<defs>
<clipPath id="clip0_4067_148">
<rect width="79.9999" height="80.064" fill="white"/>
</clipPath>
</defs>
</svg>
