<svg id="Layer_1" data-name="Layer 1" xmlns="http://www.w3.org/2000/svg" viewBox="0 0 475.16 209"><defs><style>.cls-1{fill:#f2eae3;}</style></defs><path class="cls-1" d="M481.14,90.31l-2.06-4.49a.1.1,0,0,0-.09-.06h-1.87c-.06,0-.08,0-.08.08v4.43a.18.18,0,0,1-.06.13.15.15,0,0,1-.13,0h-1.43a.17.17,0,0,1-.14,0,.21.21,0,0,1,0-.13V79.72a.19.19,0,0,1,0-.13.18.18,0,0,1,.14-.06h4.29a3.53,3.53,0,0,1,1.68.4,2.86,2.86,0,0,1,1.14,1.12,3.39,3.39,0,0,1,.41,1.67,3,3,0,0,1-.56,1.83,2.9,2.9,0,0,1-1.53,1,0,0,0,0,0-.05,0,.08.08,0,0,0,0,.07l2.2,4.54a.23.23,0,0,1,0,.09c0,.08-.06.12-.17.12h-1.5A.22.22,0,0,1,481.14,90.31ZM477,81.17v3.11s0,.07.08.07h2.34a1.66,1.66,0,0,0,1.21-.44,1.74,1.74,0,0,0,0-2.36,1.63,1.63,0,0,0-1.21-.46h-2.34C477.06,81.09,477,81.12,477,81.17Z" transform="translate(-14.84 -25.93)"/><path class="cls-1" d="M478.87,96.62A11.13,11.13,0,1,1,490,85.49,11.15,11.15,0,0,1,478.87,96.62Zm0-20.85a9.73,9.73,0,1,0,9.73,9.72A9.73,9.73,0,0,0,478.87,75.77Z" transform="translate(-14.84 -25.93)"/><path class="cls-1" d="M55,43l-15.9,57.64c7-3.58,14.51-6.66,22.43-7.68,24.36-3.12,45.7,14.73,39.43,40.21-5,20.54-28.23,42.49-48.8,47-10,2.18-20.22.48-27.22-7.37-16.59-18.6,6.1-39.53,22.16-47.9l2.47-1.24L58,138a82.48,82.48,0,0,0-11.72,8c-4,3.27-11.28,10.05-7.89,15.68,2.47,4.1,7.17,3.42,11.15,2.25,10.58-3.11,22.58-13.75,28.46-23s10.07-21.7-.75-29.06-26.43,1-36,7.08c-3.73,2.38-11.77,9.09-15.56,9.7-6.43,1-12.48-4-10.5-10.65L38.28,38.29a8.69,8.69,0,0,1,10.63-6h0A8.69,8.69,0,0,1,55,43Z" transform="translate(-14.84 -25.93)"/><path class="cls-1" d="M126.94,180.75a21.52,21.52,0,0,1-3.39-.27C111.9,178.64,104.4,166.56,104,149l-.19-7.36,6.8-.17c-1.77-14.88,1.81-29.49,9.73-38.12a22.89,22.89,0,0,1,21.16-7.5c5.39.89,10.3,4.27,13.81,9.49,6.35,9.43,7.9,24.17,4.26,40.43a57.5,57.5,0,0,1-11.7,24C141.68,176.91,134.37,180.75,126.94,180.75Zm-6.41-21.09c1.29,3.6,3.17,5.94,5.31,6.28,2.35.37,6.12-.33,10.76-5.78a42.87,42.87,0,0,0,8.55-17.65c4-18-.59-26.74-2.1-29-1.24-1.83-2.66-3-4-3.19-1.93-.32-4.86-.37-7.9,2.94-5.11,5.57-8.39,18.6-4.78,32.73.31,1.19.66,2.37,1.06,3.51h0a7.37,7.37,0,0,1-4.57,9.36Z" transform="translate(-14.84 -25.93)"/><path class="cls-1" d="M273.08,35a16.13,16.13,0,0,0-10.29-8.45,15.6,15.6,0,0,0-12.86,2c-5.06,3.14-9.39,9-13.22,18-4,9.46-7.56,22.59-10.49,39.05a269.16,269.16,0,0,0-3.49,58.3c-.82,1.38-1.42,2.35-1.72,2.81-.71,1.1-1.47,2.33-2.27,3.64C214,158.05,205.3,172.09,197,172.09a7.07,7.07,0,0,1-1.3-.12c-8.22-1.49-9.55-4.88-9.49-24.15,0-5,.05-18.78,10.88-57.22,3.88.69,7.84,1.45,11.92,2.29l7.21,1.48,3-14.43-7.22-1.48q-5.46-1.11-10.71-2.07c.81-2.69,1.67-5.46,2.58-8.35,1-3.19,1.45-4.63,1.67-5.5h0a7.36,7.36,0,0,0-5.32-8.95h0a7.36,7.36,0,0,0-8.95,5.32h0c-.13.51-.77,2.56-1.45,4.72-.86,2.75-2,6.27-3.21,10.36-25.15-3.62-46.63-4-66.27-1.41h0a7.37,7.37,0,0,0-6.32,8.28h0a7.36,7.36,0,0,0,8.28,6.31h0c17.75-2.38,37.27-2,60.13,1.1-5.27,18.89-10.86,42.58-10.91,59.51,0,8.62-.05,16.77,2.42,23.54,3,8.28,9.47,13.37,19.16,15.14,8.49,1.55,16.78-1.74,24.63-9.77a73.19,73.19,0,0,0,7.35-9c1.77,11.95,4.74,24.81,9.7,35.78h0a7.35,7.35,0,0,0,9.74,3.68h0a7.37,7.37,0,0,0,3.68-9.74h0c-5.43-12-9.13-29.71-10.44-49.91,6.84-11.72,19.64-34.78,26.1-52.35C278.6,54.85,276.53,41.83,273.08,35ZM260.23,54.31c-1.31,8.78-4.77,20.82-10.27,35.78a253.87,253.87,0,0,1-12.48,27.29,236.29,236.29,0,0,1,3.23-29.22c6.82-38.19,14.73-45.75,17-47.16a1.71,1.71,0,0,1,.84-.34l.15,0a1.61,1.61,0,0,1,1.24,1C260.44,42.64,261.49,45.88,260.23,54.31Z" transform="translate(-14.84 -25.93)"/><path class="cls-1" d="M309.58,105.74c-3.28-4.64-8-7-14.15-7a27.38,27.38,0,0,0-15.95,5.6A30.4,30.4,0,0,0,269,117.9c-2.66,7.45-1.31,14.66,3.61,19.33a6.73,6.73,0,0,0,4.81,1.94,6.85,6.85,0,0,0,4.85-2.08l.14-.15a7.12,7.12,0,0,0,1.78-4.86,6.59,6.59,0,0,0-2.2-4.75c-.42-.43-1.3-1.51-.16-4.73a17.67,17.67,0,0,1,5.73-7.19,14,14,0,0,1,7.9-2.89c.83,0,2.31.12,2.83.91l.09.14c.78,1.06.42,2.92,0,4.33a13,13,0,0,1-1.77,3.21l-.09.13-37.19,50.84a7,7,0,0,0-.57,7.24,6.76,6.76,0,0,0,6.05,3.64h34.61a6.88,6.88,0,1,0,0-13.75H278.3l29.19-39.82a25.79,25.79,0,0,0,3.65-6.78C313.37,116.44,312.81,110.46,309.58,105.74Z" transform="translate(-14.84 -25.93)"/><path class="cls-1" d="M69.25,131.23l-8.5-14.38a1.76,1.76,0,0,0-2.42-.62l-7.07,4.18,1.85,3.13,6.18-3.6,1,1.78-6.17,3.59,7.4,12.52,7.07-4.18A1.76,1.76,0,0,0,69.25,131.23Z" transform="translate(-14.84 -25.93)"/><path class="cls-1" d="M461.81,108.06c-3.51-5.22-8.42-8.59-13.8-9.49a22.9,22.9,0,0,0-21.17,7.5c-7.4,8.06-11,21.34-10,35.17-8.12,4.86-16.15,9.88-24.15,14.95q4.4-18.41,9-36.74c.31-1.22.63-2.44,1-3.65a7.2,7.2,0,0,0-4.17-8.48c-3-1.26-7.54-.34-9,2.94a80,80,0,0,1-7.57,13.2c-.8,1.17-1.62,2.31-2.46,3.45l-1.06,1.4-.75.95q-2.83,3.57-5.9,7a127.44,127.44,0,0,1-12.48,12.11c-.49.42-1,.83-1.5,1.24s-2.2,1.49-.37.31c-1.13.73-2.18,1.62-3.29,2.38a51.79,51.79,0,0,1-6,3.59q-.63.32-1.26.6h0a25.27,25.27,0,0,1-2.84.89l-.47.14-.27,0a10.26,10.26,0,0,1-1.24,0h-.52l-.17,0-.48-.1c-.21,0-1-.35-1.53-.54.2.15.23.29-.21,0l-.25-.15a.5.5,0,0,0-.26,0l.18,0-.48-.27.13.19a1.42,1.42,0,0,0-.33-.3,1.28,1.28,0,0,1-.33-.26l-.56-.55-.21-.23s-.69-1-.83-1.25-.32-.64-.5-1-.3-.84-.35-1c-.19-.63-.33-1.26-.48-1.9a.35.35,0,0,1,0,.08,1.09,1.09,0,0,0,0-.36,1.32,1.32,0,0,1-.07-.53.15.15,0,0,0,0-.06,23.76,23.76,0,0,1-.06-2.39c0-.64.08-1.29.12-1.93v-.08c.07-.39.13-.79.21-1.18a39.57,39.57,0,0,1,1.26-4.66c.22-.65.48-1.29.71-1.94,0-.07,0-.12.06-.17l0,0c.22-.48.43-1,.66-1.43a61.43,61.43,0,0,1,5.1-8.64c.42-.59.86-1.17,1.29-1.76l.07-.08.64-.78c1-1.26,2.12-2.47,3.25-3.65s2.22-2.21,3.41-3.24l1.14-1,.19-.15.34-.23c.82-.57,1.63-1.13,2.48-1.65s2-1.13,3-1.63l1-.47.06,0,.18-.06a34.48,34.48,0,0,1,5.21-1.49l.54-.08c-.58.1-1.17.34.21,0l-.19,0,.35-.07-.16,0h0a23.08,23.08,0,0,1,2.35-.09c.61,0,1.26.12,1.88.14l.68.14c.53.13,1,.32,1.55.48l.55.29.23.14c.31.36.79.7,1.08,1,2.42,2.91,7.7,2.69,10.17,0,2.83-3.08,2.58-7.07,0-10.17-4.12-4.94-11.45-6.74-17.62-6.42-8.87.45-16.87,4.26-23.75,9.71a65.83,65.83,0,0,0-14.58,16.84c-4.3,6.91-7.39,14.67-8,22.82-.56,7.28,1.68,15.35,7,20.55a22,22,0,0,0,20.49,5.27c5.12-1.23,10-4,14.25-7a114,114,0,0,0,15.07-12.76c.88-.88,1.74-1.78,2.6-2.68q-2.24,9.24-4.43,18.5l-4.57,2.93q-14.67,9.39-29.22,18.94c-6.7,4.43-13.48,8.82-19.91,13.65-2,1.52-4.55,3.13-5.87,5.41-2.37,4.07.11,8.5,2.49,11.91a33.42,33.42,0,0,0,13.15,11.56,37,37,0,0,0,24.92,1.95,33,33,0,0,0,16.85-10.47A47.62,47.62,0,0,0,382,206.21c2.4-7.89,2.73-16.13,4.59-24.12l1.35-5.81q9.38-6,18.79-11.86l4.83-3c2.49,12.27,9.18,20.38,18.54,21.85a21.52,21.52,0,0,0,3.39.27c7.43,0,14.74-3.84,20.88-11a57.44,57.44,0,0,0,11.7-24C469.71,132.23,468.16,117.49,461.81,108.06ZM340.94,157.45l.44.07A1.18,1.18,0,0,1,340.94,157.45Zm1.71.16a4.25,4.25,0,0,1,.73-.09A1.58,1.58,0,0,1,342.65,157.61Zm6.55,62.82c-.83.15,0,0,.41-.06Zm17.49-13.89a2.4,2.4,0,0,1-.11.23C366.8,206.21,367.11,205.64,366.69,206.54Zm1.85-5.56c-.38,1.37-.8,2.72-1.28,4.06-.21.58-.47,1.15-.68,1.74-.12.27-.25.54-.38.81a35.46,35.46,0,0,1-2.09,3.77c-.32.49-.66,1-1,1.45-.23.27-.45.55-.69.81a33.67,33.67,0,0,1-2.91,2.82l-.76.52c-.65.43-1.31.82-2,1.19l-1,.49-.24.11-.64.25c-.43.16-.86.3-1.29.43-.78.24-1.56.44-2.35.62-.48.1-1,.2-1.44.28l-.14,0c-2,0-4.05.3-6.11.13h-.1c-.32-.07-.68-.08-1-.15a24.56,24.56,0,0,1-2.56-.64c-.42-.12-.83-.26-1.24-.41-.59-.32-1.24-.57-1.83-.91s-1.28-.75-1.9-1.17c-.21-.14-.41-.33-.63-.47a28.27,28.27,0,0,1-2.66-2.59c-.17-.19-.33-.39-.5-.6,1.18-.84,2.36-1.68,3.55-2.5,6.95-4.82,14-9.46,21.09-14.08q7.71-5,15.44-10A121.9,121.9,0,0,1,368.54,201Zm83.16-55.71a43,43,0,0,1-8.54,17.65c-4.64,5.45-8.42,6.15-10.77,5.78-2.14-.34-4-2.68-5.31-6.27l2.31-.8a7.36,7.36,0,0,0,4.57-9.35c-.39-1.15-.75-2.33-1-3.52-3.62-14.13-.34-27.16,4.78-32.73,3-3.31,6-3.26,7.89-2.94,1.36.23,2.79,1.36,4,3.19C451.11,118.53,455.74,127.26,451.7,145.27Z" transform="translate(-14.84 -25.93)"/><path class="cls-1" d="M338.1,156.29l.07,0,.13.07c-.43-.59-.68-.57-.53-.37l0,0C337.86,156.11,338,156.19,338.1,156.29Z" transform="translate(-14.84 -25.93)"/><path class="cls-1" d="M339.32,156.85a.94.94,0,0,0-.54-.18l.08.05Z" transform="translate(-14.84 -25.93)"/><path class="cls-1" d="M334.79,149.86a2,2,0,0,1,0,.24c.15-.29-.08-.9-.13-.81s.05.33.07.53Z" transform="translate(-14.84 -25.93)"/></svg>