<?xml version="1.0" encoding="utf-8"?>
<!-- Generator: Adobe Illustrator 26.0.0, SVG Export Plug-In . SVG Version: 6.00 Build 0)  -->
<svg version="1.1" id="Layer_1" xmlns="http://www.w3.org/2000/svg" xmlns:xlink="http://www.w3.org/1999/xlink" x="0px" y="0px"
	 viewBox="0 0 501 251" style="enable-background:new 0 0 501 251;" xml:space="preserve">
<style type="text/css">
	.st0{fill:#F26764;}
</style>
<g>
	<g>
		<g>
			<g>
				<path class="st0" d="M481.14,90.31l-2.06-4.49c-0.02-0.04-0.05-0.06-0.09-0.06h-1.87c-0.05,0-0.08,0.03-0.08,0.08v4.43
					c0,0.05-0.02,0.1-0.05,0.13c-0.04,0.04-0.08,0.05-0.13,0.05h-1.44c-0.05,0-0.1-0.02-0.13-0.05c-0.04-0.04-0.05-0.08-0.05-0.13
					V79.72c0-0.05,0.02-0.1,0.05-0.13c0.04-0.04,0.08-0.05,0.13-0.05h4.29c0.63,0,1.2,0.13,1.68,0.4c0.49,0.27,0.87,0.64,1.14,1.12
					c0.27,0.48,0.41,1.04,0.41,1.66c0,0.72-0.19,1.33-0.55,1.83c-0.37,0.5-0.88,0.86-1.54,1.05c-0.02,0-0.04,0.01-0.05,0.03
					c-0.01,0.02-0.01,0.04,0,0.06l2.2,4.54c0.02,0.04,0.03,0.07,0.03,0.09c0,0.08-0.06,0.12-0.17,0.12h-1.5
					C481.26,90.45,481.18,90.41,481.14,90.31z M477.04,81.17v3.1c0,0.05,0.03,0.08,0.08,0.08h2.34c0.5,0,0.9-0.15,1.21-0.44
					c0.31-0.3,0.46-0.69,0.46-1.18c0-0.49-0.15-0.88-0.46-1.19c-0.31-0.3-0.71-0.45-1.21-0.45h-2.34
					C477.06,81.09,477.04,81.12,477.04,81.17z"/>
			</g>
		</g>
		<path class="st0" d="M478.87,96.62c-6.14,0-11.13-4.99-11.13-11.13s4.99-11.13,11.13-11.13S490,79.36,490,85.49
			S485.01,96.62,478.87,96.62z M478.87,75.77c-5.36,0-9.73,4.36-9.73,9.73s4.36,9.73,9.73,9.73s9.73-4.36,9.73-9.73
			S484.24,75.77,478.87,75.77z"/>
	</g>
	<g>
		<path class="st0" d="M55.01,43.02l-15.9,57.65c7.04-3.58,14.51-6.66,22.43-7.68c24.37-3.13,45.7,14.73,39.43,40.2
			c-5.06,20.54-28.23,42.49-48.8,46.99c-10,2.18-20.22,0.48-27.23-7.37c-16.59-18.6,6.11-39.53,22.17-47.89
			c0.41-0.21,2.46-1.24,2.46-1.24l8.46,14.32c-4.1,2.36-8.08,4.93-11.73,7.96c-3.94,3.27-11.27,10.06-7.89,15.69
			c2.47,4.1,7.17,3.41,11.15,2.25c10.58-3.11,22.58-13.75,28.46-22.97c5.83-9.13,10.06-21.7-0.76-29.06
			c-10.84-7.38-26.43,0.97-36.01,7.08c-3.73,2.38-11.77,9.09-15.56,9.7c-6.43,1.03-12.48-3.96-10.5-10.65l23.06-79.68
			c1.32-4.56,6.05-7.22,10.63-5.97l0,0C53.56,33.58,56.29,38.38,55.01,43.02z"/>
		<path class="st0" d="M126.94,180.75c-1.13,0-2.26-0.09-3.39-0.27c-11.64-1.84-19.15-13.92-19.59-31.52l-0.19-7.36l6.79-0.17
			c-1.77-14.87,1.81-29.49,9.73-38.11c5.66-6.17,13.18-8.84,21.17-7.5c5.39,0.9,10.29,4.27,13.81,9.49
			c6.35,9.43,7.9,24.17,4.26,40.43c-1.98,8.83-6.24,17.57-11.7,23.97C141.68,176.91,134.37,180.75,126.94,180.75z M120.53,159.66
			c1.3,3.6,3.17,5.93,5.31,6.27c2.35,0.37,6.12-0.33,10.76-5.78c3.9-4.58,7.09-11.18,8.54-17.65c4.04-18-0.59-26.74-2.1-28.99
			c-1.23-1.83-2.66-2.96-4.01-3.19c-1.94-0.32-4.86-0.37-7.9,2.94c-5.11,5.57-8.4,18.6-4.78,32.73c0.3,1.19,0.66,2.38,1.05,3.52v0
			c1.32,3.85-0.72,8.03-4.57,9.36L120.53,159.66z"/>
		<path class="st0" d="M273.08,34.99c-2.15-4.26-5.61-7.1-10.29-8.45c-4.34-1.26-8.78-0.58-12.86,1.96
			c-5.06,3.15-9.39,9.05-13.22,18.03c-4.03,9.46-7.56,22.6-10.5,39.05c-3.2,17.93-4.42,38.49-3.48,58.3
			c-0.83,1.38-1.42,2.35-1.72,2.82c-0.71,1.09-1.47,2.33-2.27,3.63c-4.77,7.72-13.43,21.76-21.78,21.76c-0.43,0-0.87-0.04-1.3-0.12
			c-8.22-1.5-9.55-4.88-9.49-24.15c0.01-5.02,0.06-18.79,10.88-57.22c3.88,0.69,7.85,1.45,11.92,2.29l7.21,1.48l2.96-14.42
			l-7.21-1.48c-3.65-0.75-7.21-1.44-10.72-2.07c0.81-2.69,1.67-5.46,2.58-8.35c1-3.19,1.45-4.64,1.67-5.51l0,0
			c1-3.94-1.38-7.95-5.32-8.95l0,0c-3.94-1-7.95,1.38-8.95,5.32v0c-0.13,0.51-0.77,2.56-1.45,4.72c-0.86,2.74-1.97,6.27-3.21,10.36
			c-25.15-3.62-46.62-4.05-66.27-1.41l0,0c-4.03,0.54-6.86,4.25-6.31,8.28l0,0c0.54,4.03,4.25,6.86,8.28,6.31l0,0
			c17.75-2.39,37.26-2.05,60.13,1.1c-5.28,18.89-10.86,42.57-10.91,59.51c-0.03,8.62-0.05,16.77,2.42,23.54
			c3.02,8.28,9.46,13.37,19.15,15.13c8.49,1.55,16.78-1.74,24.64-9.77c2.71-2.77,5.17-5.89,7.35-8.98
			c1.77,11.95,4.73,24.81,9.69,35.78v0c1.67,3.71,6.04,5.35,9.74,3.68h0c3.71-1.67,5.35-6.04,3.68-9.74v0
			c-5.43-12.01-9.12-29.71-10.43-49.91c6.84-11.71,19.64-34.78,26.1-52.35C278.6,54.85,276.53,41.83,273.08,34.99z M260.23,54.31
			c-1.31,8.78-4.77,20.82-10.27,35.78c-3.06,8.32-7.75,18.16-12.48,27.29c0.51-10.14,1.59-20.05,3.23-29.21
			c6.81-38.19,14.73-45.75,16.99-47.16c0.45-0.28,0.7-0.34,0.84-0.34c0.07,0,0.11,0.01,0.15,0.02c0.81,0.23,0.99,0.46,1.24,0.96
			C260.44,42.64,261.49,45.88,260.23,54.31z"/>
		<path class="st0" d="M309.58,105.74c-3.27-4.64-8.03-6.97-14.15-6.97c-5.38,0-11.04,1.99-15.94,5.6
			c-4.87,3.59-8.61,8.39-10.52,13.53c-2.66,7.45-1.31,14.66,3.61,19.33c1.27,1.25,2.98,1.94,4.82,1.94c1.79,0,3.51-0.74,4.85-2.08
			c0.05-0.05,0.1-0.1,0.14-0.15c1.19-1.37,1.82-3.1,1.77-4.86c-0.05-1.84-0.83-3.52-2.19-4.74c-0.42-0.43-1.3-1.51-0.17-4.73
			c0.95-2.49,3.04-5.11,5.74-7.19c2.53-1.84,5.4-2.89,7.89-2.89c0.84,0,2.31,0.12,2.83,0.92c0.03,0.05,0.06,0.09,0.1,0.14
			c0.78,1.06,0.41,2.92-0.04,4.33c-0.48,1.13-1.02,2.3-1.77,3.21c-0.03,0.04-0.07,0.08-0.1,0.12l-37.18,50.85
			c-1.55,2.19-1.76,4.94-0.57,7.23c1.16,2.25,3.48,3.65,6.05,3.65h34.61c3.82,0,6.93-3.06,6.93-6.82c0-3.82-3.11-6.93-6.93-6.93
			H278.3l29.19-39.83c1.49-1.96,2.69-4.18,3.65-6.78C313.37,116.44,312.81,110.46,309.58,105.74z"/>
		<path class="st0" d="M69.25,131.23l-8.5-14.38c-0.5-0.84-1.58-1.12-2.42-0.62l-7.07,4.18l1.85,3.13l6.18-3.6l1.03,1.78l-6.17,3.59
			l7.4,12.52l7.07-4.18C69.47,133.15,69.75,132.07,69.25,131.23z"/>
		<g>
			<path class="st0" d="M461.81,108.06c-3.52-5.22-8.42-8.59-13.81-9.49c-7.99-1.33-15.5,1.33-21.17,7.5
				c-7.4,8.06-11.01,21.34-10.01,35.17c-8.12,4.86-16.15,9.87-24.15,14.94c2.93-12.27,5.92-24.52,9.04-36.73
				c0.31-1.22,0.62-2.44,0.96-3.65c0.97-3.46-0.92-7.11-4.16-8.48c-2.98-1.26-7.54-0.34-8.98,2.94c-2.04,4.65-4.69,9.03-7.57,13.2
				c-0.8,1.16-1.62,2.31-2.46,3.44c-0.35,0.47-0.7,0.94-1.05,1.4c-0.25,0.32-0.5,0.63-0.75,0.95c-1.89,2.38-3.86,4.69-5.9,6.95
				c-3.89,4.3-8.03,8.39-12.48,12.12c-0.5,0.42-1,0.83-1.5,1.24c-0.45,0.36-2.2,1.49-0.37,0.31c-1.13,0.73-2.18,1.62-3.29,2.38
				c-1.93,1.32-3.94,2.55-6.03,3.59c-0.42,0.21-0.84,0.4-1.26,0.6c-0.01,0-0.02,0.01-0.02,0.01c-0.94,0.34-1.87,0.66-2.84,0.89
				c-0.1,0.02-0.28,0.08-0.47,0.14c-0.09,0.01-0.18,0.02-0.27,0.02c-0.41,0.03-0.83,0.03-1.24,0.02c-0.03,0-0.27,0-0.51,0
				c-0.05-0.01-0.11-0.02-0.17-0.03c-0.16-0.03-0.32-0.07-0.48-0.1c-0.2-0.05-0.95-0.35-1.53-0.54c0.21,0.15,0.23,0.29-0.21,0.02
				c-0.08-0.05-0.16-0.1-0.25-0.15c-0.12-0.03-0.21-0.04-0.26-0.02c0.06-0.02,0.12-0.03,0.18-0.03c-0.16-0.09-0.32-0.19-0.48-0.27
				c0.04,0.06,0.09,0.12,0.13,0.2c-0.06-0.09-0.19-0.2-0.33-0.31c-0.17-0.1-0.27-0.19-0.33-0.26c-0.19-0.18-0.38-0.36-0.56-0.55
				c-0.03-0.04-0.11-0.12-0.21-0.23c0.03-0.03-0.69-1-0.83-1.25c-0.08-0.14-0.32-0.64-0.49-0.99c-0.13-0.36-0.31-0.84-0.36-1
				c-0.19-0.63-0.33-1.26-0.47-1.9c-0.01,0.03-0.03,0.05-0.05,0.07c0.02-0.02,0-0.17-0.02-0.36c-0.08-0.35-0.09-0.5-0.07-0.53
				c-0.01-0.04-0.01-0.06-0.01-0.05c-0.06-0.79-0.08-1.59-0.06-2.39c0.01-0.65,0.08-1.29,0.11-1.94c0-0.03,0-0.05,0-0.07
				c0.07-0.4,0.13-0.79,0.21-1.19c0.32-1.58,0.75-3.13,1.26-4.65c0.22-0.66,0.48-1.3,0.71-1.95c0.02-0.06,0.04-0.11,0.06-0.16
				c0.01-0.02,0.02-0.03,0.02-0.05c0.22-0.48,0.43-0.96,0.66-1.43c1.45-3.02,3.18-5.9,5.1-8.63c0.42-0.59,0.85-1.18,1.29-1.76
				c0.02-0.03,0.04-0.05,0.07-0.08c0.22-0.26,0.42-0.52,0.64-0.78c1.04-1.25,2.12-2.47,3.25-3.64c1.09-1.13,2.23-2.22,3.41-3.24
				c0.38-0.33,0.76-0.64,1.14-0.96c0.07-0.06,0.13-0.11,0.19-0.16c0.08-0.06,0.19-0.13,0.33-0.23c0.82-0.56,1.63-1.13,2.48-1.65
				c0.97-0.59,1.96-1.14,2.97-1.64c0.33-0.16,0.66-0.31,0.98-0.47c0.02-0.01,0.04-0.02,0.07-0.03c0.05-0.02,0.11-0.04,0.17-0.06
				c1.71-0.61,3.43-1.15,5.21-1.49c0.17-0.03,0.36-0.06,0.54-0.08c-0.58,0.1-1.17,0.34,0.21-0.03c-0.06,0.01-0.12,0.01-0.18,0.03
				c0.12-0.02,0.24-0.04,0.35-0.07c-0.06,0.02-0.11,0.03-0.17,0.04c0.01,0,0.03,0,0.04,0c0.78-0.07,1.57-0.1,2.36-0.09
				c0.61,0.01,1.26,0.12,1.88,0.13c0.22,0.04,0.45,0.09,0.67,0.14c0.53,0.13,1.04,0.32,1.56,0.48c0.18,0.09,0.37,0.19,0.55,0.29
				c0.08,0.04,0.15,0.09,0.22,0.14c0.31,0.36,0.79,0.7,1.08,1.06c2.42,2.9,7.71,2.68,10.17,0c2.83-3.09,2.58-7.07,0-10.17
				c-4.12-4.94-11.45-6.74-17.62-6.43c-8.87,0.45-16.87,4.26-23.75,9.71c-5.81,4.6-10.68,10.58-14.58,16.84
				c-4.3,6.9-7.38,14.66-8.01,22.82c-0.56,7.28,1.68,15.35,7,20.55c5.38,5.26,13.28,7,20.49,5.27c5.12-1.23,9.96-4,14.25-6.99
				c5.4-3.77,10.41-8.11,15.07-12.76c0.88-0.88,1.74-1.78,2.6-2.68c-1.49,6.17-2.97,12.33-4.43,18.51
				c-1.52,0.98-3.05,1.95-4.57,2.93c-9.78,6.26-19.53,12.55-29.21,18.94c-6.71,4.43-13.48,8.82-19.91,13.64
				c-2.03,1.52-4.56,3.14-5.88,5.41c-2.36,4.07,0.11,8.5,2.49,11.91c3.36,4.82,7.75,9.09,13.15,11.56
				c7.85,3.59,16.57,4.14,24.92,1.95c6.45-1.69,12.56-5.33,16.85-10.47c4.17-4.99,6.98-10.74,8.86-16.95
				c2.39-7.89,2.72-16.13,4.58-24.12c0.45-1.93,0.9-3.87,1.35-5.8c6.25-3.97,12.51-7.93,18.79-11.87c1.61-1.01,3.22-2.02,4.83-3.03
				c2.49,12.27,9.18,20.38,18.54,21.86c1.13,0.18,2.26,0.27,3.39,0.27c7.43,0,14.74-3.84,20.88-11.05
				c5.46-6.41,9.72-15.15,11.7-23.97C469.71,132.23,468.16,117.49,461.81,108.06z M340.94,157.45c0.17,0.03,0.32,0.05,0.44,0.07
				C341.18,157.51,340.99,157.49,340.94,157.45z M342.65,157.61c-0.06-0.02,0.35-0.06,0.73-0.09
				C343.1,157.6,342.8,157.66,342.65,157.61z M349.2,220.43c-0.83,0.14-0.04-0.02,0.41-0.07
				C349.47,220.39,349.34,220.41,349.2,220.43z M366.69,206.54c-0.04,0.08-0.07,0.15-0.11,0.23
				C366.8,206.21,367.11,205.64,366.69,206.54z M368.54,200.98c-0.38,1.37-0.8,2.72-1.28,4.06c-0.21,0.58-0.47,1.15-0.68,1.74
				c-0.12,0.27-0.25,0.54-0.38,0.81c-0.62,1.29-1.32,2.55-2.09,3.77c-0.32,0.49-0.65,0.97-0.99,1.45c-0.23,0.27-0.45,0.55-0.68,0.81
				c-0.91,1.02-1.9,1.92-2.92,2.82c-0.25,0.18-0.5,0.35-0.76,0.52c-0.64,0.42-1.31,0.82-1.99,1.18c-0.32,0.17-0.65,0.34-0.97,0.5
				c-0.05,0.02-0.14,0.06-0.24,0.11c-0.21,0.08-0.52,0.21-0.64,0.25c-0.43,0.15-0.86,0.3-1.29,0.43c-0.77,0.24-1.56,0.44-2.34,0.61
				c-0.48,0.11-0.96,0.2-1.44,0.28c-0.05,0.01-0.09,0.02-0.14,0.02c-2.04-0.04-4.05,0.3-6.11,0.13c-0.03,0-0.06-0.01-0.09-0.01
				c-0.33-0.07-0.69-0.09-1-0.15c-0.86-0.17-1.72-0.38-2.56-0.64c-0.42-0.13-0.83-0.27-1.24-0.42c-0.6-0.32-1.24-0.57-1.83-0.9
				c-0.65-0.36-1.28-0.76-1.9-1.18c-0.21-0.14-0.41-0.33-0.63-0.47c-0.94-0.8-1.83-1.66-2.66-2.59c-0.17-0.19-0.34-0.4-0.5-0.6
				c1.17-0.84,2.36-1.68,3.55-2.5c6.95-4.82,14.02-9.46,21.09-14.08c5.13-3.35,10.28-6.68,15.44-10
				C370.53,191.66,369.82,196.37,368.54,200.98z M451.7,145.27c-1.45,6.47-4.65,13.07-8.54,17.65c-4.64,5.45-8.41,6.15-10.76,5.78
				c-2.14-0.34-4.02-2.68-5.31-6.27l2.31-0.79c3.85-1.32,5.89-5.51,4.57-9.36c-0.39-1.14-0.75-2.33-1.05-3.52
				c-3.62-14.13-0.33-27.16,4.78-32.73c3.04-3.31,5.96-3.26,7.9-2.94c1.36,0.23,2.78,1.36,4.01,3.19
				C451.11,118.53,455.74,127.26,451.7,145.27z"/>
			<path class="st0" d="M338.1,156.29c0.02,0.01,0.05,0.03,0.07,0.04c0.04,0.02,0.08,0.05,0.12,0.07c-0.42-0.59-0.68-0.57-0.52-0.37
				c0.01,0.01,0.02,0.02,0.03,0.03C337.86,156.11,337.98,156.19,338.1,156.29z"/>
			<path class="st0" d="M339.32,156.85c-0.13-0.09-0.34-0.19-0.54-0.18c0.03,0.02,0.06,0.03,0.08,0.05
				C338.99,156.75,339.14,156.8,339.32,156.85z"/>
			<path class="st0" d="M334.79,149.86c0.02,0.08,0.04,0.16,0.06,0.24c0.15-0.29-0.08-0.9-0.13-0.82c0.01,0.1,0.05,0.33,0.07,0.53
				C334.78,149.83,334.78,149.84,334.79,149.86z"/>
		</g>
	</g>
</g>
</svg>
